<svg width="231" height="347" viewBox="0 0 231 347" fill="none" xmlns="http://www.w3.org/2000/svg">
<g clip-path="url(#clip0_373_150)">
<g opacity="0.2">
<mask id="path-1-inside-1_373_150" fill="white">
<path d="M-452.246 105.999C-427.09 185.03 -374.56 252.492 -304.104 296.251C-233.649 340.009 -149.892 357.192 -67.8981 344.709C14.0955 332.226 88.9445 290.897 143.186 228.154C197.427 165.411 227.501 85.3732 227.999 2.43627L196.729 2.24877C196.276 77.7403 168.902 150.593 119.53 207.703C70.158 264.814 2.02839 302.433 -72.6045 313.795C-147.237 325.158 -223.476 309.517 -287.606 269.687C-351.737 229.857 -399.551 168.451 -422.449 96.5146L-452.246 105.999Z"/>
</mask>
<path d="M-452.246 105.999C-427.09 185.03 -374.56 252.492 -304.104 296.251C-233.649 340.009 -149.892 357.192 -67.8981 344.709C14.0955 332.226 88.9445 290.897 143.186 228.154C197.427 165.411 227.501 85.3732 227.999 2.43627L196.729 2.24877C196.276 77.7403 168.902 150.593 119.53 207.703C70.158 264.814 2.02839 302.433 -72.6045 313.795C-147.237 325.158 -223.476 309.517 -287.606 269.687C-351.737 229.857 -399.551 168.451 -422.449 96.5146L-452.246 105.999Z" stroke="#3574B0" stroke-width="4" mask="url(#path-1-inside-1_373_150)"/>
<mask id="path-2-inside-2_373_150" fill="white">
<path d="M-396.038 88.1086C-375.142 153.757 -331.508 209.795 -272.983 246.143C-214.458 282.492 -144.885 296.765 -76.7758 286.396C-8.66684 276.027 53.5073 241.696 98.5635 189.578C143.62 137.46 168.601 70.9755 169.014 2.08303L140.08 1.90954C139.708 63.9128 117.225 123.749 76.6747 170.655C36.1241 217.561 -19.8326 248.459 -81.1306 257.791C-142.429 267.123 -205.045 254.277 -257.717 221.564C-310.389 188.85 -349.661 138.416 -368.467 79.3326L-396.038 88.1086Z"/>
</mask>
<path d="M-396.038 88.1086C-375.142 153.757 -331.508 209.795 -272.983 246.143C-214.458 282.492 -144.885 296.765 -76.7758 286.396C-8.66684 276.027 53.5073 241.696 98.5635 189.578C143.62 137.46 168.601 70.9755 169.014 2.08303L140.08 1.90954C139.708 63.9128 117.225 123.749 76.6747 170.655C36.1241 217.561 -19.8326 248.459 -81.1306 257.791C-142.429 267.123 -205.045 254.277 -257.717 221.564C-310.389 188.85 -349.661 138.416 -368.467 79.3326L-396.038 88.1086Z" stroke="#3574B0" stroke-width="4" mask="url(#path-2-inside-2_373_150)"/>
<mask id="path-3-inside-3_373_150" fill="white">
<path d="M-338.658 69.8443C-322.111 121.83 -287.557 166.206 -241.213 194.99C-194.868 223.773 -139.773 235.076 -85.839 226.865C-31.9046 218.654 17.3301 191.468 53.0095 150.196C88.6888 108.925 108.471 56.2768 108.798 1.72195L83.2482 1.56874C82.9576 50.0401 65.3812 96.8172 33.6806 133.486C1.97993 170.156 -41.7645 194.31 -89.6846 201.606C-137.605 208.901 -186.555 198.859 -227.732 173.285C-268.909 147.711 -299.609 108.283 -314.311 62.0946L-338.658 69.8443Z"/>
</mask>
<path d="M-338.658 69.8443C-322.111 121.83 -287.557 166.206 -241.213 194.99C-194.868 223.773 -139.773 235.076 -85.839 226.865C-31.9046 218.654 17.3301 191.468 53.0095 150.196C88.6888 108.925 108.471 56.2768 108.798 1.72195L83.2482 1.56874C82.9576 50.0401 65.3812 96.8172 33.6806 133.486C1.97993 170.156 -41.7645 194.31 -89.6846 201.606C-137.605 208.901 -186.555 198.859 -227.732 173.285C-268.909 147.711 -299.609 108.283 -314.311 62.0946L-338.658 69.8443Z" stroke="#3574B0" stroke-width="4" mask="url(#path-3-inside-3_373_150)"/>
</g>
</g>
<defs>
<clipPath id="clip0_373_150">
<rect width="230" height="347" fill="white" transform="translate(0.337646)"/>
</clipPath>
</defs>
</svg>
