<svg xmlns="http://www.w3.org/2000/svg" xmlns:xlink="http://www.w3.org/1999/xlink" viewBox="0 0 853.68 1000.57"><defs><style>.cls-1,.cls-21,.cls-33{fill:none;}.cls-2{isolation:isolate;}.cls-3,.cls-51,.cls-52{fill:#4bb647;}.cls-4{fill:#a2603d;}.cls-5{fill:#008648;}.cls-6{fill:#005930;}.cls-7{fill:#52c325;}.cls-8,.cls-9{fill:#00b2bf;}.cls-9{opacity:0.2;}.cls-16,.cls-46,.cls-9{mix-blend-mode:multiply;}.cls-10{fill:#8ddce2;}.cls-11{fill:#a6200b;}.cls-12{fill:#ef944d;}.cls-13{fill:#ff4a24;}.cls-14,.cls-16{fill:#faf0f7;}.cls-15{fill:#003f38;}.cls-17{fill:#007a80;}.cls-18{fill:#353535;}.cls-19{fill:#292929;}.cls-20{fill:#5e6060;}.cls-21{stroke:#8ddce2;}.cls-21,.cls-33{stroke-linecap:round;stroke-linejoin:round;stroke-width:0.33px;}.cls-22{fill:#89dc6e;}.cls-23{fill:#78c55a;}.cls-24{fill:#f3f4f3;}.cls-25{fill:#00b4bb;}.cls-26{fill:#dedede;}.cls-27{fill:#adafaf;}.cls-28{fill:#454545;}.cls-29{fill:#00e1e6;}.cls-30{fill:#00c9cf;}.cls-31{fill:#ffb231;}.cls-32{fill:#fff;}.cls-33{stroke:#1f191a;}.cls-34{fill:#006b35;}.cls-35{fill:#003212;}.cls-36{fill:#00401a;}.cls-37{fill:#61c45c;}.cls-38{fill:#d6b28f;}.cls-39{fill:#fce5ba;}.cls-40{fill:#dcdcd3;}.cls-41{fill:#fffdef;}.cls-42{fill:#0091a2;}.cls-43{fill:#00a4b1;}.cls-44,.cls-46{fill:#8bbfb1;}.cls-45{fill:#f0f5f4;}.cls-46{opacity:0.4;}.cls-47{fill:#4ea145;}.cls-48{clip-path:url(#clip-path);}.cls-49{fill:#ffcf1c;}.cls-50{fill:#f0d6a9;}.cls-51{font-size:50.65px;font-family:Montserrat-Bold, Montserrat;font-weight:700;}.cls-52{stroke:#4bb647;stroke-miterlimit:10;}</style><clipPath id="clip-path" transform="translate(-13.3 -89.75)"><path class="cls-1" d="M489.06,489S435.72,417.4,372.6,470.89L341.5,528.2s-10.89,13.66,2.53,20.94l72.17,39.17s11.23,9.56,20.27-8.26Z"/></clipPath></defs><g class="cls-2"><g id="Layer_1" data-name="Layer 1"><path class="cls-3" d="M522.45,273.64s127.61-106,245.1-4.53c0,0,83.2,80.19,99.44,149.66,0,0-62-16.95-110.13,10.5-15.52,8.85-32.25,15.44-50,17.8-50.19,6.68-139.38.64-176.37-113.78,0,0,132.36-10.42,169.89,24.77,0,0-31.79-48.25-171.48-56.63,0,0-93.93-13.22-165.88,30,0,0-188.85,82.22-176.09,287.3,0,0-3.71,285.11,302.62,304.37,0,0,221.39,6.88,295.24-203.78,0,0,64.71-111.83-16.76-259.82l19.63-16.31s77.4,143.08,35.56,252.49c0,0-31.34,191.94-253.63,243.88,0,0-169.46,63.62-323.9-101.31,0,0-122.64-116.68-82.32-307.79S410.55,258.76,522.45,273.64Z" transform="translate(-13.3 -89.75)"/><path class="cls-3" d="M497.16,253.18S524.4,235.48,517.05,152c0,0,31.68,33.43,3,98.74,0,0,69.54-66.07,3.47-135.61l-20.7-25.4s-9.07,27.2-27.57,47.7a47.52,47.52,0,0,0-12.29,29C461.72,187.51,465.86,221.78,497.16,253.18Z" transform="translate(-13.3 -89.75)"/><rect class="cls-4" x="271.54" y="670.88" width="3.94" height="12.61" transform="translate(-466.87 656.41) rotate(-73.43)"/><path class="cls-5" d="M248.18,669.6s20.35,21.26,24.51,7.29C276.78,663.13,248.18,669.6,248.18,669.6Z" transform="translate(-13.3 -89.75)"/><path class="cls-6" d="M248.18,669.6l24.51,7.29C276.78,663.13,248.18,669.6,248.18,669.6Z" transform="translate(-13.3 -89.75)"/><rect class="cls-4" x="288.08" y="704.73" width="3.94" height="12.61" transform="translate(-356.82 1055.21) rotate(-102.22)"/><path class="cls-5" d="M264.2,716.58s28.08,8.84,25-5.41C286.15,697.14,264.2,716.58,264.2,716.58Z" transform="translate(-13.3 -89.75)"/><path class="cls-6" d="M264.2,716.58l25-5.41C286.15,697.14,264.2,716.58,264.2,716.58Z" transform="translate(-13.3 -89.75)"/><rect class="cls-4" x="298.29" y="721.92" width="3.27" height="10.46" transform="translate(-360.6 1084.39) rotate(-102.22)"/><path class="cls-5" d="M278.47,731.75s23.3,7.34,20.74-4.49C296.69,715.62,278.47,731.75,278.47,731.75Z" transform="translate(-13.3 -89.75)"/><path class="cls-6" d="M278.47,731.75l20.74-4.49C296.69,715.62,278.47,731.75,278.47,731.75Z" transform="translate(-13.3 -89.75)"/><path class="cls-7" d="M335.65,784.73s-5.27-42.45,11.93-71,31.07-49.11,31.07-49.11,4.16-7.77,18,0,16.37,6.66,18.86,3.33.56-6.94-4.71-17.76-33.57-65.47-33.57-65.47l-92.11-7.49s-6.39.83-6.94,5.82,11.65,12.49,11.65,12.49,8.6,5.82.56,18-16.93,34.13-17.2,54.66Z" transform="translate(-13.3 -89.75)"/><path class="cls-8" d="M350.63,719.81s-37.45,81,39.68,111H455.5s17.21,3.05,17.21-12.21V736.46s3.05-14.43-16.93-13.87Z" transform="translate(-13.3 -89.75)"/><path class="cls-9" d="M390.31,830.79H455.5s17.21,3.05,17.21-12.21V794.5c-120.12-6.2-122.08-74.69-122.08-74.69S313.18,800.82,390.31,830.79Z" transform="translate(-13.3 -89.75)"/><rect class="cls-10" x="360.96" y="687.82" width="70.48" height="4.8" rx="1.55"/><path class="cls-10" d="M451.74,780a2.4,2.4,0,1,1-2.4-2.4A2.39,2.39,0,0,1,451.74,780Z" transform="translate(-13.3 -89.75)"/><path class="cls-10" d="M459,780a2.4,2.4,0,1,1-2.4-2.4A2.39,2.39,0,0,1,459,780Z" transform="translate(-13.3 -89.75)"/><polygon class="cls-11" points="376.21 659.96 375.19 665.72 377.55 665.72 376.21 659.96"/><rect class="cls-12" x="376.69" y="661.94" width="22.86" height="8.02"/><polygon class="cls-13" points="376.21 659.96 377.27 665.72 401.36 665.72 399.85 659.96 376.21 659.96"/><path class="cls-14" d="M366.78,757.87a1.34,1.34,0,0,0-1.32,1.58c1,5.2,5.19,21.5,20.27,21.5h28.59a1.34,1.34,0,0,0,1.34-1.34v-20.4a1.34,1.34,0,0,0-1.34-1.34Z" transform="translate(-13.3 -89.75)"/><path class="cls-15" d="M371.17,773.4a21.74,21.74,0,0,0,2.33,2.67h42.16V773.4Z" transform="translate(-13.3 -89.75)"/><circle class="cls-12" cx="367.91" cy="675.98" r="2.71"/><path class="cls-15" d="M382.87,765.73a1.66,1.66,0,1,1-1.65-1.65A1.65,1.65,0,0,1,382.87,765.73Z" transform="translate(-13.3 -89.75)"/><circle class="cls-12" cx="378.35" cy="675.98" r="2.71"/><path class="cls-15" d="M393.3,765.73a1.65,1.65,0,1,1-1.65-1.65A1.65,1.65,0,0,1,393.3,765.73Z" transform="translate(-13.3 -89.75)"/><circle class="cls-12" cx="388.78" cy="675.98" r="2.71"/><path class="cls-15" d="M403.74,765.73a1.66,1.66,0,1,1-1.65-1.65A1.65,1.65,0,0,1,403.74,765.73Z" transform="translate(-13.3 -89.75)"/><path class="cls-16" d="M365.46,759.45c1,5.2,5.19,21.5,20.27,21.5h28.59a1.34,1.34,0,0,0,1.16-.67,85.59,85.59,0,0,0-11.74-.68c-23.48.09-25.24-17-25.27-21.73H366.78A1.34,1.34,0,0,0,365.46,759.45Z" transform="translate(-13.3 -89.75)"/><path class="cls-17" d="M383.23,792.07A.22.22,0,0,1,383,792c-5.2-8.84-3.79-27.93-3.31-32.91-2,3.88-8.52,17.9-4.75,31.72a.23.23,0,0,1-.17.29.24.24,0,0,1-.3-.17c-4.46-16.36,5.27-33,5.37-33.13a.26.26,0,0,1,.29-.11.24.24,0,0,1,.16.26c0,.24-2.77,23.78,3.13,33.8a.27.27,0,0,1-.09.34Z" transform="translate(-13.3 -89.75)"/><path class="cls-17" d="M394.36,791.6a.24.24,0,0,1-.18-.09c-14-16.77-12.76-33.49-12.75-33.66a.24.24,0,0,1,.22-.22.25.25,0,0,1,.26.17c.06.24,6.88,23.78,21.95,32.81a.25.25,0,0,1,.09.34.24.24,0,0,1-.33.08c-13.09-7.84-20-26.44-21.74-31.69,0,4.39,1.15,18.1,12.67,31.86a.24.24,0,0,1,0,.34A.25.25,0,0,1,394.36,791.6Z" transform="translate(-13.3 -89.75)"/><path class="cls-17" d="M382,789.51h0a.23.23,0,0,1-.17-.11c-2.32-3.81-7.67-1.82-7.73-1.8a.24.24,0,0,1-.31-.14.24.24,0,0,1,.14-.31c.06,0,5.56-2.08,8.16,1.76,1-.79,5.28-3.74,10-.73a6.5,6.5,0,0,1,3.74-2.22,4.08,4.08,0,0,1,3.1,1,.23.23,0,0,1,0,.34.25.25,0,0,1-.34,0,3.61,3.61,0,0,0-2.74-.86,6.24,6.24,0,0,0-3.56,2.21.25.25,0,0,1-.33.05c-5.15-3.43-9.77.71-9.81.75A.27.27,0,0,1,382,789.51Z" transform="translate(-13.3 -89.75)"/><path class="cls-17" d="M380.05,781.41a.21.21,0,0,1-.18-.08c-2.17-2.43-6.15-.46-6.19-.44a.24.24,0,0,1-.33-.1.25.25,0,0,1,.11-.33c.17-.09,4.18-2.08,6.62.39.84-.56,4.43-2.74,7.07-.66.6-.61,2.8-2.53,4.87-1.19a.23.23,0,0,1,.08.33.25.25,0,0,1-.34.08c-2.08-1.35-4.39,1.24-4.41,1.27a.25.25,0,0,1-.35,0c-2.7-2.36-6.77.63-6.81.67A.23.23,0,0,1,380.05,781.41Z" transform="translate(-13.3 -89.75)"/><path class="cls-17" d="M379.56,775.09a.23.23,0,0,1-.17-.08c-1.86-2-5-.78-5-.76a.25.25,0,0,1-.18-.46c.14,0,3.32-1.26,5.4.75.67-.41,3.09-1.7,5-.14a4.47,4.47,0,0,1,2.52-1.43,1.92,1.92,0,0,1,1.44.48.25.25,0,0,1,0,.34.26.26,0,0,1-.35,0,1.41,1.41,0,0,0-1.08-.37,4.41,4.41,0,0,0-2.35,1.44.26.26,0,0,1-.17.09.28.28,0,0,1-.18-.06c-2-1.83-4.74.11-4.77.13A.23.23,0,0,1,379.56,775.09Z" transform="translate(-13.3 -89.75)"/><path class="cls-17" d="M379.41,768.69a.27.27,0,0,1-.18-.08,2.81,2.81,0,0,0-3.31-.52.23.23,0,0,1-.32-.1.24.24,0,0,1,.09-.33,3.33,3.33,0,0,1,3.76.48,3.21,3.21,0,0,1,3.29-.1,3.73,3.73,0,0,1,2.82-.47.25.25,0,0,1,.13.32.25.25,0,0,1-.32.13c-1-.41-2.5.51-2.51.52a.26.26,0,0,1-.27,0,2.82,2.82,0,0,0-3,.12A.23.23,0,0,1,379.41,768.69Z" transform="translate(-13.3 -89.75)"/><path class="cls-17" d="M381.78,762.58a.22.22,0,0,1-.11,0,1.87,1.87,0,0,0-1.85,0,.25.25,0,0,1-.33,0,1.23,1.23,0,0,0-1.33-.4.24.24,0,0,1-.31-.14.23.23,0,0,1,.14-.31,1.68,1.68,0,0,1,1.74.4,2.36,2.36,0,0,1,2,0,1.58,1.58,0,0,1,1.43-.22.23.23,0,0,1,.13.32.24.24,0,0,1-.31.13,1.15,1.15,0,0,0-1.06.24A.3.3,0,0,1,381.78,762.58Z" transform="translate(-13.3 -89.75)"/><path class="cls-18" d="M429.53,804.13l.73-.6a1.15,1.15,0,0,0,.5-.65.81.81,0,0,0-.46-.79,2.22,2.22,0,0,0-1-.18,22.56,22.56,0,0,0-4.85.36,13.66,13.66,0,0,0-4.06,1c-9.87,1.1-16.45,8.18-16.45,8.18,18.82,5.1,38,0,38,0A32,32,0,0,0,429.53,804.13Z" transform="translate(-13.3 -89.75)"/><path class="cls-19" d="M404,811.49c18.82,5.1,38,0,38,0a38.1,38.1,0,0,0-5.51-4.19c-3.13.55-6.2,1.39-9.32,2a40.83,40.83,0,0,1-17,.08,25,25,0,0,1-2.77-.81A25.9,25.9,0,0,0,404,811.49Z" transform="translate(-13.3 -89.75)"/><path class="cls-20" d="M409,807.85a1,1,0,0,0-1.32.24.77.77,0,0,0-.1.77c.18.43,1,.25,1.29.08a.81.81,0,0,0,.37-.34A.62.62,0,0,0,409,807.85Z" transform="translate(-13.3 -89.75)"/><path class="cls-20" d="M409.49,807.77a.17.17,0,0,0,0,.12c0,.1.13.15.23.17a.85.85,0,0,0,.59,0,.64.64,0,0,0,.35-.48.37.37,0,0,0,0-.18.37.37,0,0,0-.29-.12A.77.77,0,0,0,409.49,807.77Z" transform="translate(-13.3 -89.75)"/><path class="cls-20" d="M409,807.45s0,.11,0,.14a.11.11,0,0,0,.11,0,.66.66,0,0,0,.33-.12.37.37,0,0,0,.15-.13.17.17,0,0,0,0-.18.24.24,0,0,0-.1-.05.37.37,0,0,0-.18,0A.46.46,0,0,0,409,807.45Z" transform="translate(-13.3 -89.75)"/><path class="cls-20" d="M408,809.94a.28.28,0,0,0,.08.21.36.36,0,0,0,.23.08,1,1,0,0,0,.81-.21.65.65,0,0,0,.1-.15.39.39,0,0,0-.13-.46A.71.71,0,0,0,408,809.94Z" transform="translate(-13.3 -89.75)"/><path class="cls-21" d="M402.63,811.29s-.44,3.62,18.84,3.29" transform="translate(-13.3 -89.75)"/><path class="cls-21" d="M402.63,813.76s3.22,2.39,13.83,2.3" transform="translate(-13.3 -89.75)"/><path class="cls-21" d="M442.87,811s2.24,2.12-10.37,3.23" transform="translate(-13.3 -89.75)"/><path class="cls-21" d="M443.92,812.63s-1.47,2.27-8.67,2.75" transform="translate(-13.3 -89.75)"/><path class="cls-22" d="M272,667.12c-3.73-11.77,3.36-24.92,11.5-34.2,3.12-3.56,7.5-6.86,12.16-6,4.43.79,7.39,5,11.47,6.88,7.55,3.49,16.55-1.69,24.64.21a14.78,14.78,0,0,1,10.93,11.67c1,5.84-1.69,11.61-4.28,16.94l-7.2,14.79a174.3,174.3,0,0,0-7.46,16.85,87.63,87.63,0,0,0-1.6,54.13c.44,1.48.92,3.06.46,4.53s-2.31,2.6-3.58,1.73C319.08,754.63,277.88,685.52,272,667.12Z" transform="translate(-13.3 -89.75)"/><path class="cls-23" d="M310.61,715c.78-17.41,7.66-34,16.41-49.11,1.92-3.3,4-7,3-10.71a9.32,9.32,0,0,0-4.43-5.33,13.41,13.41,0,0,0-7.88-1.79c-2.73.24-5.31,1.3-8,1.88s-5.71.58-7.9-1.06c-3.69-2.78-3.25-8.66-6.3-12.13a9.72,9.72,0,0,0-8.41-2.78,18,18,0,0,0-6.09,2c-7,9-12.33,20.62-9,31.15,4.55,14.34,30.56,59.44,41.83,78.68C311.85,735.58,310.15,725.33,310.61,715Z" transform="translate(-13.3 -89.75)"/><rect class="cls-4" x="274.54" y="639.21" width="5.81" height="18.6" transform="translate(-435.07 465.76) rotate(-59.26)"/><path class="cls-5" d="M244,628.51s21.43,37.78,32.43,19.28C287.2,629.59,244,628.51,244,628.51Z" transform="translate(-13.3 -89.75)"/><path class="cls-6" d="M244,628.51l32.43,19.28C287.2,629.59,244,628.51,244,628.51Z" transform="translate(-13.3 -89.75)"/><rect class="cls-4" x="298.27" y="636.91" width="5.81" height="18.6" transform="translate(-421.49 485.06) rotate(-59.26)"/><path class="cls-5" d="M267.68,626.21s21.43,37.78,32.43,19.28C310.94,627.29,267.68,626.21,267.68,626.21Z" transform="translate(-13.3 -89.75)"/><path class="cls-6" d="M267.68,626.21l32.43,19.28C310.94,627.29,267.68,626.21,267.68,626.21Z" transform="translate(-13.3 -89.75)"/><rect class="cls-4" x="286.55" y="663.88" width="5.24" height="16.77" transform="translate(-449.75 487.43) rotate(-59.26)"/><path class="cls-5" d="M259,654.24s19.31,34,29.22,17.37C298,655.21,259,654.24,259,654.24Z" transform="translate(-13.3 -89.75)"/><path class="cls-6" d="M259,654.24l29.22,17.37C298,655.21,259,654.24,259,654.24Z" transform="translate(-13.3 -89.75)"/><rect class="cls-4" x="296.75" y="690.11" width="6.79" height="21.72" transform="translate(-469.07 510.91) rotate(-59.26)"/><path class="cls-5" d="M261,677.62s25,44.1,37.86,22.51C311.53,678.88,261,677.62,261,677.62Z" transform="translate(-13.3 -89.75)"/><path class="cls-6" d="M261,677.62l37.86,22.51C311.53,678.88,261,677.62,261,677.62Z" transform="translate(-13.3 -89.75)"/><path class="cls-24" d="M279.4,587.06h1.5a1.37,1.37,0,0,1,1.37,1.37v59.21A1.37,1.37,0,0,1,280.9,649h-1.5a1.36,1.36,0,0,1-1.36-1.36V588.43A1.37,1.37,0,0,1,279.4,587.06Z" transform="translate(-411.47 510.19) rotate(-64.09)"/><path class="cls-24" d="M250.43,629.56s7.21-13.26,2.86-24.32C246.5,615,250.43,629.56,250.43,629.56Z" transform="translate(-13.3 -89.75)"/><path class="cls-25" d="M253.29,605.24l-2.86,24.32S257.64,616.3,253.29,605.24Z" transform="translate(-13.3 -89.75)"/><path class="cls-24" d="M275,593.89s-15,1.53-21.71,11.35C265.17,605.35,275,593.89,275,593.89Z" transform="translate(-13.3 -89.75)"/><path class="cls-25" d="M253.29,605.24,275,593.89S260,595.42,253.29,605.24Z" transform="translate(-13.3 -89.75)"/><path class="cls-24" d="M234.29,589.79s7.34,13.19,19,15.45C248.7,594.28,234.29,589.79,234.29,589.79Z" transform="translate(-13.3 -89.75)"/><path class="cls-25" d="M253.29,605.24l-19-15.45S241.63,603,253.29,605.24Z" transform="translate(-13.3 -89.75)"/><path class="cls-24" d="M256.39,600.44a5.45,5.45,0,1,1-7.28,2.52A5.44,5.44,0,0,1,256.39,600.44Z" transform="translate(-13.3 -89.75)"/><path class="cls-25" d="M255.59,602.08a3.62,3.62,0,1,1-4.83,1.68A3.62,3.62,0,0,1,255.59,602.08Z" transform="translate(-13.3 -89.75)"/><path class="cls-24" d="M310.92,562.16h1.77a1.61,1.61,0,0,1,1.61,1.61v70a1.62,1.62,0,0,1-1.62,1.62h-1.77a1.61,1.61,0,0,1-1.61-1.61v-70a1.61,1.61,0,0,1,1.61-1.61Z" transform="translate(-376.34 528.07) rotate(-64.11)"/><path class="cls-24" d="M271.25,611.27s11.35-13.79,8.79-27.61C270,593.46,271.25,611.27,271.25,611.27Z" transform="translate(-13.3 -89.75)"/><path class="cls-25" d="M280,583.66l-8.79,27.61S282.6,597.48,280,583.66Z" transform="translate(-13.3 -89.75)"/><path class="cls-24" d="M307.79,575.35S290,573.76,280,583.66C293.81,586.46,307.79,575.35,307.79,575.35Z" transform="translate(-13.3 -89.75)"/><path class="cls-25" d="M280,583.66l27.75-8.31S290,573.76,280,583.66Z" transform="translate(-13.3 -89.75)"/><path class="cls-24" d="M261.43,561.46s5.57,17,18.61,22.2C277.16,569.91,261.43,561.46,261.43,561.46Z" transform="translate(-13.3 -89.75)"/><path class="cls-25" d="M280,583.66l-18.61-22.2S267,578.42,280,583.66Z" transform="translate(-13.3 -89.75)"/><path class="cls-24" d="M283.71,578a6.44,6.44,0,1,1-8.61,3A6.45,6.45,0,0,1,283.71,578Z" transform="translate(-13.3 -89.75)"/><path class="cls-25" d="M282.76,579.93a4.28,4.28,0,1,1-5.72,2A4.28,4.28,0,0,1,282.76,579.93Z" transform="translate(-13.3 -89.75)"/><path class="cls-6" d="M343,659c-3.07-.28-5-3.57-5.4-6.62A12.05,12.05,0,0,1,341.1,642c2.81-2.55,7.33-3.25,10.53-1.21a14.61,14.61,0,0,1,1.95-6.81c1.32-2,3.75-3.4,6.08-2.87a8.59,8.59,0,0,1,8.54-8.82l-24.54,36.84Z" transform="translate(-13.3 -89.75)"/><path class="cls-6" d="M335.67,699.2a2.94,2.94,0,0,1,2.8-4.3c-1-1.36,0-3.24.95-4.62a8.23,8.23,0,0,1-3.9-3.6c-1.15-2.5-.22-5.47,1.18-7.83a10.9,10.9,0,0,1,3.44-3.82,5.55,5.55,0,0,1,5-.59,3.44,3.44,0,0,1,3.95-4.86,4.18,4.18,0,0,1,5.8-4.06L336.42,700.4Z" transform="translate(-13.3 -89.75)"/><path class="cls-5" d="M292.59,681.6a2.94,2.94,0,0,1,2.8-4.3c-1-1.36,0-3.24.95-4.62a8.07,8.07,0,0,1-3.89-3.6c-1.16-2.49-.23-5.46,1.17-7.83a10.9,10.9,0,0,1,3.44-3.82,5.52,5.52,0,0,1,5-.58,3.44,3.44,0,0,1,4-4.86,4.18,4.18,0,0,1,5.8-4.06L293.34,682.8Z" transform="translate(-13.3 -89.75)"/><rect class="cls-4" x="297.44" y="710.44" width="3.94" height="12.61" transform="translate(-351.05 1071.3) rotate(-102.22)"/><path class="cls-5" d="M273.56,722.29s28.08,8.84,25-5.41C295.51,702.85,273.56,722.29,273.56,722.29Z" transform="translate(-13.3 -89.75)"/><path class="cls-6" d="M273.56,722.29l25-5.41C295.51,702.85,273.56,722.29,273.56,722.29Z" transform="translate(-13.3 -89.75)"/><rect class="cls-26" x="397.37" y="613.54" width="46.21" height="27.58" rx="0.59"/><rect class="cls-27" x="398.96" y="616.05" width="36.9" height="1.46" rx="0.39"/><path class="cls-27" d="M451.13,706.53a.73.73,0,0,1-1.46,0,.73.73,0,0,1,1.46,0Z" transform="translate(-13.3 -89.75)"/><path class="cls-27" d="M453.35,706.53a.73.73,0,1,1-.73-.73A.73.73,0,0,1,453.35,706.53Z" transform="translate(-13.3 -89.75)"/><rect class="cls-28" x="406" y="620.74" width="28.95" height="8.86" rx="0.59"/><rect class="cls-8" x="404.3" y="626.9" width="32.35" height="16.42" rx="2.96"/><path class="cls-29" d="M415.46,732.94a3.29,3.29,0,0,1,2-3.43,2.5,2.5,0,0,1,3.23,1.87,2.11,2.11,0,0,1,2.66.07,1.66,1.66,0,0,1,2.26-.53,3.5,3.5,0,0,1,6.88-.12,1.77,1.77,0,0,1,2.77.55A2.17,2.17,0,0,1,438,732a2,2,0,0,1,2.86-.17,1.65,1.65,0,0,1,2-.39,4.11,4.11,0,0,1,3.15-2.21,2.54,2.54,0,0,1,2.71,2.32,2.23,2.23,0,0,1,3.7,1.12,2.31,2.31,0,0,1,3.82,1.06h-40.8Z" transform="translate(-13.3 -89.75)"/><path class="cls-30" d="M419,719.34c-.06.41.15,1,.55.89.21,0,.33-.25.44-.44a3.27,3.27,0,0,1,.67-.86.45.45,0,0,1,.32-.14.23.23,0,0,1,.12.06.2.2,0,0,1,0,.15,3.7,3.7,0,0,0-.14.55s0,.05.07.09a.64.64,0,0,0,.45,0c.13-.06.24-.16.36-.22a3.37,3.37,0,0,1,.34-.09l1-.31c.16-.06.37-.09.47,0s0,.29.07.43.34.21.52.13.32-.25.49-.35a1.85,1.85,0,0,1,1.12-.11,17.23,17.23,0,0,0,4.48-.11,4.14,4.14,0,0,1,1.4-.07c.27,0,.53.16.8.21a7.84,7.84,0,0,0,2.2-.19,19.57,19.57,0,0,0,2.3-.08c.43-.1.83-.3,1.25-.41a6.77,6.77,0,0,1,2-.14,33.75,33.75,0,0,1,7,.7c.47.11,1.15.13,1.25-.35a.62.62,0,0,0-.5-.67,2.21,2.21,0,0,0-.92,0,7.77,7.77,0,0,1-2.31.05c-.55-.07-1.09-.2-1.64-.28a20.87,20.87,0,0,0-4.47-.08l-13.52.72c-.16,0-.36,0-.41-.17a1.08,1.08,0,0,1,0-.18c0-.35-.4-.59-.75-.55a1.36,1.36,0,0,0-.36.1c-.4.15-.75.44-1.15.59a.4.4,0,0,1-.58-.51c0-.12.07-.27,0-.36l-.12-.06a.41.41,0,0,0-.3.11,1.31,1.31,0,0,0-.22.25,2,2,0,0,1-.24.27.17.17,0,0,1-.15.08c-.07,0-.11-.09-.1-.15a.48.48,0,0,1,.09-.19l.28-.36a.29.29,0,0,0,.07-.12.24.24,0,0,0-.19-.28.57.57,0,0,0-.36.06,2,2,0,0,0-.64.51c-.13.19-.28.37-.41.56A3.16,3.16,0,0,0,419,719.34Z" transform="translate(-13.3 -89.75)"/><rect class="cls-31" x="404.58" y="595.56" width="31.79" height="14.2" rx="0.59"/><polygon class="cls-32" points="421.13 596.38 416.17 602.97 420.51 602.97 418.34 608.95 424.78 600.88 420.47 600.8 421.13 596.38"/><line class="cls-33" x1="407.7" y1="609.22" x2="407.7" y2="614.6"/><line class="cls-33" x1="433.25" y1="609.22" x2="433.25" y2="614.6"/><path class="cls-8" d="M371.1,824.89c-3.06-.62-6.39-.72-9.12.78a3.81,3.81,0,0,0-2,2.31c-.33,1.52.95,3,2.42,3.51a9.88,9.88,0,0,0,4.62,0,56.54,56.54,0,0,1,8.6-.84,27.32,27.32,0,0,1,4.24.31c.66.1,3.36,1.17,3.81.91,1.61-1-3.85-3.77-4.64-4.18A30.43,30.43,0,0,0,371.1,824.89Z" transform="translate(-13.3 -89.75)"/><path class="cls-8" d="M358.51,815.69a8.18,8.18,0,0,0-1.44-1.44,2.18,2.18,0,0,0-1.93-.37,2.22,2.22,0,0,0-1.23,1.44,4.54,4.54,0,0,0,1.22,4.38,9,9,0,0,0,4.15,2.24,18.81,18.81,0,0,0,5.63.68c1,0,4.07-.14,2.24-1.52-1.24-.94-3.36-1.24-4.76-2.12A18.25,18.25,0,0,1,358.51,815.69Z" transform="translate(-13.3 -89.75)"/><path class="cls-34" d="M489.06,489S435.72,417.4,372.6,470.89L341.5,528.2s-10.89,13.66,2.53,20.94l72.17,39.17s11.23,9.56,20.27-8.26Z" transform="translate(-13.3 -89.75)"/><path class="cls-35" d="M392.83,478.79a33.68,33.68,0,0,1-20.24-7,.54.54,0,0,1,0-.77.55.55,0,0,1,.77-.06c.22.2,22.86,19.26,47.53-7.57a.56.56,0,0,1,.47-.17.57.57,0,0,1,.42.3A21.56,21.56,0,0,0,434,473.07c8.84,2.8,19.78.76,32.51-6.05a.53.53,0,0,1,.65.1c.69.72,17.05,17.5,33.73,2.89a.55.55,0,1,1,.72.82c-16.22,14.21-32.55-.36-34.94-2.66-12.86,6.82-24,8.81-33,5.93a22.78,22.78,0,0,1-12.53-9.46C410.89,475.54,401,478.79,392.83,478.79Z" transform="translate(-13.3 -89.75)"/><path class="cls-35" d="M421.24,514.93a.55.55,0,0,1-.55-.55V463.72a.55.55,0,0,1,1.1,0v50.66A.55.55,0,0,1,421.24,514.93Z" transform="translate(-13.3 -89.75)"/><path class="cls-35" d="M466.78,497.6a.55.55,0,0,1-.54-.55V467.5a.55.55,0,1,1,1.09,0v29.55A.55.55,0,0,1,466.78,497.6Z" transform="translate(-13.3 -89.75)"/><path class="cls-35" d="M392.74,478.81a.53.53,0,0,1-.24-.06.55.55,0,0,1-.25-.73,5.62,5.62,0,0,1,6.91-2.68,10.23,10.23,0,0,1,1.54.82c.34.21.69.42,1,.59a4,4,0,0,0,2.22.43,2.17,2.17,0,0,0,1.64-1.12,4.13,4.13,0,0,0,.23-1.73,4,4,0,0,1,.58-2.57,3.43,3.43,0,0,1,3.47-1,12,12,0,0,1,1.3.37,8,8,0,0,0,1.72.42,1.41,1.41,0,0,0,1-.19c.39-.3.39-.91.35-1.81s-.1-2.07.8-2.72a2.84,2.84,0,0,1,2.27-.23,5.63,5.63,0,0,0,.81.11,2.19,2.19,0,0,0,1.66-.79,2.15,2.15,0,0,0,.55-1.75.53.53,0,0,1,.44-.63.54.54,0,0,1,.63.44,3.38,3.38,0,0,1-3.32,3.82,6.32,6.32,0,0,1-1-.13c-.59-.1-1.1-.2-1.44.05s-.39.86-.35,1.78.09,2-.76,2.71a2.35,2.35,0,0,1-1.76.43,9,9,0,0,1-2-.47,9.54,9.54,0,0,0-1.19-.34,2.4,2.4,0,0,0-2.37.54,3.22,3.22,0,0,0-.36,1.91,5.07,5.07,0,0,1-.33,2.2,3.21,3.21,0,0,1-2.47,1.74,4.9,4.9,0,0,1-2.85-.53,11.76,11.76,0,0,1-1.14-.64,8.66,8.66,0,0,0-1.37-.73,4.54,4.54,0,0,0-5.53,2.14A.55.55,0,0,1,392.74,478.81Z" transform="translate(-13.3 -89.75)"/><path class="cls-35" d="M467,493.73a.55.55,0,0,1-.55-.48,6.63,6.63,0,0,0-.37-1.42,5.18,5.18,0,0,1-.4-2.54,5.39,5.39,0,0,1,.32-1,5.17,5.17,0,0,0,.18-.51,3.54,3.54,0,0,0-.23-2.67,9.67,9.67,0,0,0-.57-.9,3.84,3.84,0,0,1-1-2.75c.19-1.27,1.35-2,2.29-2.59s1.53-1.29,1.48-1.89-.75-1.13-1.42-1.34a8.56,8.56,0,0,0-1.14-.25A8,8,0,0,1,464,475a1.56,1.56,0,0,1-1.2-1.61,1.61,1.61,0,0,1,.68-1,9.27,9.27,0,0,1,3-1.65.55.55,0,0,1,.69.35.55.55,0,0,1-.35.69,8.34,8.34,0,0,0-2.7,1.46c-.18.14-.27.25-.28.32s.2.31.51.42a6.74,6.74,0,0,0,1.34.32,11.61,11.61,0,0,1,1.27.29,2.86,2.86,0,0,1,2.18,2.29c.09,1.05-.56,2-2,2.9-.78.49-1.67,1.06-1.79,1.83a3,3,0,0,0,.8,2,10.15,10.15,0,0,1,.64,1,4.67,4.67,0,0,1,.31,3.5q-.09.29-.21.57a4.28,4.28,0,0,0-.26.82,4.24,4.24,0,0,0,.36,2,8,8,0,0,1,.42,1.65.54.54,0,0,1-.48.6Z" transform="translate(-13.3 -89.75)"/><path class="cls-35" d="M442.83,476.9a2.43,2.43,0,0,1-1.77-1,7.38,7.38,0,0,1-1-1.65,1.64,1.64,0,0,0-.25-.45.65.65,0,0,0-.69,0,2.88,2.88,0,0,0-.84.83.55.55,0,1,1-.87-.67,4,4,0,0,1,1.19-1.13,1.72,1.72,0,0,1,2,.18,2.08,2.08,0,0,1,.46.72,6.85,6.85,0,0,0,.9,1.48c.32.4.78.74,1.06.6s.31-.39.44-.7l.11-.24A4.62,4.62,0,0,1,450,473l.43.31a2.63,2.63,0,0,0,.88.5A1.84,1.84,0,0,0,453,473a8.68,8.68,0,0,0,.66-.93,11.23,11.23,0,0,1,.84-1.15,2.11,2.11,0,0,1,2-.81,2.42,2.42,0,0,1,.86.45l.22.15a2,2,0,0,0,2.72-.78.55.55,0,1,1,1,.48,3.08,3.08,0,0,1-4.28,1.23l-.28-.19a1.36,1.36,0,0,0-.47-.27c-.29-.08-.67.2-.92.48a7.11,7.11,0,0,0-.74,1,11,11,0,0,1-.75,1,2.85,2.85,0,0,1-2.76,1.14,3.42,3.42,0,0,1-1.28-.69l-.37-.26a3.28,3.28,0,0,0-2.74-.33,3.33,3.33,0,0,0-2.14,1.74l-.09.21a2.16,2.16,0,0,1-1,1.25A1.37,1.37,0,0,1,442.83,476.9Z" transform="translate(-13.3 -89.75)"/><path class="cls-35" d="M378.69,483.81s5-5.14,1.72-8C376.23,477.05,378.69,483.81,378.69,483.81Z" transform="translate(-13.3 -89.75)"/><path class="cls-36" d="M378.69,483.81l1.72-8C376.23,477.05,378.69,483.81,378.69,483.81Z" transform="translate(-13.3 -89.75)"/><path class="cls-35" d="M433.74,482.31s5-5.15,1.73-8C431.29,475.55,433.74,482.31,433.74,482.31Z" transform="translate(-13.3 -89.75)"/><path class="cls-36" d="M433.74,482.31l1.73-8C431.29,475.55,433.74,482.31,433.74,482.31Z" transform="translate(-13.3 -89.75)"/><path class="cls-35" d="M492.73,482.57s5-5.15,1.73-8C490.28,475.81,492.73,482.57,492.73,482.57Z" transform="translate(-13.3 -89.75)"/><path class="cls-36" d="M492.73,482.57l1.73-8C490.28,475.81,492.73,482.57,492.73,482.57Z" transform="translate(-13.3 -89.75)"/><path class="cls-35" d="M393.15,486.27s5-5.14,1.72-8C390.69,479.51,393.15,486.27,393.15,486.27Z" transform="translate(-13.3 -89.75)"/><path class="cls-36" d="M393.15,486.27l1.72-8C390.69,479.51,393.15,486.27,393.15,486.27Z" transform="translate(-13.3 -89.75)"/><path class="cls-35" d="M411.55,481.55s2-6.92-2.29-7.85C406.17,476.78,411.55,481.55,411.55,481.55Z" transform="translate(-13.3 -89.75)"/><path class="cls-36" d="M411.55,481.55l-2.29-7.85C406.17,476.78,411.55,481.55,411.55,481.55Z" transform="translate(-13.3 -89.75)"/><path class="cls-35" d="M500,481.1s2-6.92-2.3-7.85C494.59,476.33,500,481.1,500,481.1Z" transform="translate(-13.3 -89.75)"/><path class="cls-36" d="M500,481.1l-2.3-7.85C494.59,476.33,500,481.1,500,481.1Z" transform="translate(-13.3 -89.75)"/><path class="cls-35" d="M405.28,485.75s3.25-6.41-.75-8.14C400.91,480,405.28,485.75,405.28,485.75Z" transform="translate(-13.3 -89.75)"/><path class="cls-36" d="M405.28,485.75l-.75-8.14C400.91,480,405.28,485.75,405.28,485.75Z" transform="translate(-13.3 -89.75)"/><path class="cls-35" d="M476.13,481.69s3.25-6.41-.75-8.14C471.76,476,476.13,481.69,476.13,481.69Z" transform="translate(-13.3 -89.75)"/><path class="cls-36" d="M476.13,481.69l-.75-8.14C471.76,476,476.13,481.69,476.13,481.69Z" transform="translate(-13.3 -89.75)"/><path class="cls-35" d="M452.62,482.38s3.25-6.41-.75-8.14C448.25,476.67,452.62,482.38,452.62,482.38Z" transform="translate(-13.3 -89.75)"/><path class="cls-36" d="M452.62,482.38l-.75-8.14C448.25,476.67,452.62,482.38,452.62,482.38Z" transform="translate(-13.3 -89.75)"/><path class="cls-35" d="M428.65,493.8s-4.57-5.55-7.76-2.58C421.67,495.51,428.65,493.8,428.65,493.8Z" transform="translate(-13.3 -89.75)"/><path class="cls-36" d="M428.65,493.8l-7.76-2.58C421.67,495.51,428.65,493.8,428.65,493.8Z" transform="translate(-13.3 -89.75)"/><path class="cls-35" d="M429.24,477.15s-4.58-5.55-7.76-2.57C422.25,478.87,429.24,477.15,429.24,477.15Z" transform="translate(-13.3 -89.75)"/><path class="cls-36" d="M429.24,477.15l-7.76-2.57C422.25,478.87,429.24,477.15,429.24,477.15Z" transform="translate(-13.3 -89.75)"/><path class="cls-35" d="M413.48,480.13s4.57-5.55,7.76-2.58C420.46,481.84,413.48,480.13,413.48,480.13Z" transform="translate(-13.3 -89.75)"/><path class="cls-36" d="M413.48,480.13l7.76-2.58C420.46,481.84,413.48,480.13,413.48,480.13Z" transform="translate(-13.3 -89.75)"/><path class="cls-35" d="M415.11,511.59s1.65-7,5.82-5.75C422.14,510,415.11,511.59,415.11,511.59Z" transform="translate(-13.3 -89.75)"/><path class="cls-36" d="M415.11,511.59l5.82-5.75C422.14,510,415.11,511.59,415.11,511.59Z" transform="translate(-13.3 -89.75)"/><path class="cls-35" d="M461.19,498.57s1.64-7,5.82-5.74C468.21,497,461.19,498.57,461.19,498.57Z" transform="translate(-13.3 -89.75)"/><path class="cls-36" d="M461.19,498.57l5.82-5.74C468.21,497,461.19,498.57,461.19,498.57Z" transform="translate(-13.3 -89.75)"/><path class="cls-35" d="M382.47,469.37s5.56,4.57,2.58,7.76C380.76,476.35,382.47,469.37,382.47,469.37Z" transform="translate(-13.3 -89.75)"/><path class="cls-36" d="M382.47,469.37l2.58,7.76C380.76,476.35,382.47,469.37,382.47,469.37Z" transform="translate(-13.3 -89.75)"/><path class="cls-35" d="M444,465s5.55,4.57,2.58,7.76C442.25,471.93,444,465,444,465Z" transform="translate(-13.3 -89.75)"/><path class="cls-36" d="M444,465l2.58,7.76C442.25,471.93,444,465,444,465Z" transform="translate(-13.3 -89.75)"/><path class="cls-35" d="M397.48,467.62s3.4,6.34-.56,8.16C393.25,473.44,397.48,467.62,397.48,467.62Z" transform="translate(-13.3 -89.75)"/><path class="cls-36" d="M397.48,467.62l-.56,8.16C393.25,473.44,397.48,467.62,397.48,467.62Z" transform="translate(-13.3 -89.75)"/><path class="cls-35" d="M456.79,462.4s3.41,6.33-.55,8.16C452.56,468.21,456.79,462.4,456.79,462.4Z" transform="translate(-13.3 -89.75)"/><path class="cls-36" d="M456.79,462.4l-.55,8.16C452.56,468.21,456.79,462.4,456.79,462.4Z" transform="translate(-13.3 -89.75)"/><path class="cls-35" d="M407.5,463.19S413,467.85,410,471C405.67,470.14,407.5,463.19,407.5,463.19Z" transform="translate(-13.3 -89.75)"/><path class="cls-36" d="M407.5,463.19,410,471C405.67,470.14,407.5,463.19,407.5,463.19Z" transform="translate(-13.3 -89.75)"/><path class="cls-35" d="M483.53,468.55s5.48,4.66,2.45,7.8C481.7,475.5,483.53,468.55,483.53,468.55Z" transform="translate(-13.3 -89.75)"/><path class="cls-36" d="M483.53,468.55l2.45,7.8C481.7,475.5,483.53,468.55,483.53,468.55Z" transform="translate(-13.3 -89.75)"/><path class="cls-35" d="M429.79,461.15s-.09,7.19-4.44,6.86C423.27,464.18,429.79,461.15,429.79,461.15Z" transform="translate(-13.3 -89.75)"/><path class="cls-36" d="M429.79,461.15,425.35,468C423.27,464.18,429.79,461.15,429.79,461.15Z" transform="translate(-13.3 -89.75)"/><path class="cls-35" d="M472,461.15s-.09,7.19-4.44,6.86C465.47,464.18,472,461.15,472,461.15Z" transform="translate(-13.3 -89.75)"/><path class="cls-36" d="M472,461.15,467.55,468C465.47,464.18,472,461.15,472,461.15Z" transform="translate(-13.3 -89.75)"/><path class="cls-37" d="M439.15,444.82s39.82,15.62,56.73,44.37,28.34,50.73,28.34,50.73,4.85,7.36-8.6,15.85S502,567,503.7,570.76s5.83,3.8,17.85,4.33,73.56,1.72,73.56,1.72l50.52-77.38s2.31-6-1.81-8.88-16.53,4.29-16.53,4.29-9.23,4.78-16.12-8.11-21.92-31.16-39.83-41.19Z" transform="translate(-13.3 -89.75)"/><path class="cls-38" d="M503.7,570.76c1.73,3.79,5.83,3.8,17.85,4.33s73.56,1.72,73.56,1.72l44.36-67.94a51.29,51.29,0,0,0-16.25,10.87c-4.64,4.74-8.1,10.48-12.12,15.76-7.2,9.46-16.37,17.55-27.1,22.68s-23,7.19-34.72,5c-6.47-1.25-12.64-3.77-19.09-5.11a56.9,56.9,0,0,0-16.72-.86C502.17,564.56,502.06,567.2,503.7,570.76Z" transform="translate(-13.3 -89.75)"/><path class="cls-39" d="M503.7,570.76c1.73,3.79,5.83,3.8,17.85,4.33s73.56,1.72,73.56,1.72l41.5-63.57a52.77,52.77,0,0,0-5.43,4.53c-5.56,5.35-9.76,11.93-14,18.39-8.19,12.53-17.53,25.55-31.5,31-7.5,2.89-15.71,3.3-23.75,3.1A169.89,169.89,0,0,1,533,567c-7.83-1.55-15.69-3.66-23.66-3.16a34.54,34.54,0,0,0-5,.7C502.41,567,502.77,568.74,503.7,570.76Z" transform="translate(-13.3 -89.75)"/><path class="cls-22" d="M557.28,467.28c-4,2.9-7,7.49-7,12.42.05,7.41,6.58,13.1,13.11,16.59s13.93,6.12,18.55,11.91c3.29,4.12,4.76,9.37,7.3,14s6.94,9,12.21,8.7c5.58-.27,9.48-5.38,13-9.71a88.16,88.16,0,0,1,13.41-13.28c4.47-3.57,9.35-6.77,12.89-11.26a20.88,20.88,0,0,0,3.26-5.88l-.24-.2c-4.13-2.87-16.53,4.29-16.53,4.29s-9.23,4.78-16.12-8.11A113.37,113.37,0,0,0,590.47,460,113.66,113.66,0,0,0,571,462C566.14,463,561.27,464.39,557.28,467.28Z" transform="translate(-13.3 -89.75)"/><rect x="384.49" y="530.28" width="2.87" height="21.28" transform="translate(758.55 992.09) rotate(180)"/><polygon class="cls-40" points="401.29 415.94 401.29 418.27 390.82 449.56 343.96 449.56 343.96 447.92 401.29 415.94"/><polygon class="cls-41" points="401.29 415.94 356.72 415.94 343.96 447.92 390.5 447.92 401.29 415.94"/><polygon class="cls-42" points="397.17 418.96 358.14 418.96 348.08 444.89 388.24 444.89 397.17 418.96"/><path class="cls-43" d="M361.39,534.64l10.06-25.92H372c2,4.82,9.52,17.91,30.94,21.75l-1.44,4.17Z" transform="translate(-13.3 -89.75)"/><rect class="cls-41" x="379.55" y="521.06" width="31.4" height="1.3" transform="translate(-241.82 630.24) rotate(-70.49)"/><rect class="cls-41" x="370.23" y="521.06" width="31.4" height="1.3" transform="translate(-248.03 621.46) rotate(-70.49)"/><rect class="cls-41" x="360.91" y="521.06" width="31.4" height="1.3" transform="translate(-254.23 612.7) rotate(-70.49)"/><rect class="cls-41" x="352.44" y="431.28" width="41.51" height="1.3"/><rect x="410.12" y="551.41" width="2.87" height="21.28" transform="translate(809.8 1034.34) rotate(180)"/><polygon class="cls-40" points="426.91 437.06 426.91 439.4 416.45 470.69 369.59 470.69 369.59 469.04 426.91 437.06"/><polygon class="cls-41" points="426.91 437.06 382.34 437.06 369.59 469.04 416.12 469.04 426.91 437.06"/><polygon class="cls-42" points="422.79 440.09 383.77 440.09 373.71 466.02 413.86 466.02 422.79 440.09"/><path class="cls-43" d="M387,555.77l10.06-25.93h.59c2.06,4.82,9.52,17.91,30.94,21.75l-1.44,4.18Z" transform="translate(-13.3 -89.75)"/><rect class="cls-41" x="405.17" y="542.19" width="31.4" height="1.3" transform="translate(-244.67 668.47) rotate(-70.49)"/><rect class="cls-41" x="395.85" y="542.19" width="31.4" height="1.3" transform="translate(-250.87 659.68) rotate(-70.49)"/><rect class="cls-41" x="386.54" y="542.19" width="31.4" height="1.3" transform="translate(-257.07 650.92) rotate(-70.49)"/><rect class="cls-41" x="378.07" y="452.41" width="41.51" height="1.3"/><path class="cls-44" d="M527.94,444.18,483.55,394l-44.4,50.84S483.75,451.91,527.94,444.18Z" transform="translate(-13.3 -89.75)"/><polygon class="cls-45" points="470.24 326.25 468.79 316.55 459.88 322.26 461.19 316.55 459.72 316.32 470.24 304.27 483.61 319.37 474.55 316.55 470.24 326.25"/><path class="cls-46" d="M439.15,444.86,483.55,394V447.8A312,312,0,0,1,439.15,444.86Z" transform="translate(-13.3 -89.75)"/><path class="cls-44" d="M448.72,447.45l62.52-70.64,62.53,71.6S511,458.33,448.72,447.45Z" transform="translate(-13.3 -89.75)"/><polygon class="cls-45" points="497.94 318.01 499.99 304.36 512.53 312.4 510.69 304.36 512.76 304.03 497.94 287.06 479.11 308.33 491.88 304.36 497.94 318.01"/><path class="cls-46" d="M573.77,448.41l-62.53-71.6v75.74A439.52,439.52,0,0,0,573.77,448.41Z" transform="translate(-13.3 -89.75)"/><rect class="cls-4" x="544.84" y="353.07" width="4.96" height="15.88"/><path class="cls-5" d="M560.71,417.46s-18.39,32.19,0,32.2C578.77,449.68,560.71,417.46,560.71,417.46Z" transform="translate(-13.3 -89.75)"/><path class="cls-6" d="M560.71,417.46l0,32.2C578.77,449.68,560.71,417.46,560.71,417.46Z" transform="translate(-13.3 -89.75)"/><rect class="cls-4" x="494.07" y="357.4" width="3.73" height="11.92"/><path class="cls-5" d="M509.3,428.11s-13.81,24.17,0,24.18C522.86,452.3,509.3,428.11,509.3,428.11Z" transform="translate(-13.3 -89.75)"/><path class="cls-6" d="M509.3,428.11l0,24.18C522.86,452.3,509.3,428.11,509.3,428.11Z" transform="translate(-13.3 -89.75)"/><rect class="cls-4" x="505.46" y="366.03" width="4.96" height="15.88"/><path class="cls-5" d="M521.34,430.42s-18.4,32.19,0,32.2C539.39,462.64,521.34,430.42,521.34,430.42Z" transform="translate(-13.3 -89.75)"/><path class="cls-6" d="M521.34,430.42l0,32.2C539.39,462.64,521.34,430.42,521.34,430.42Z" transform="translate(-13.3 -89.75)"/><path class="cls-6" d="M499.22,472.55c-1.4-2.59.19-5.86,2.41-7.8a11.52,11.52,0,0,1,10.1-2.74,8.6,8.6,0,0,1,6.54,7.73,14,14,0,0,1,6.44-2.06c2.28,0,4.7,1.18,5.51,3.32a8.2,8.2,0,0,1,11.54,2.12h-42.3Z" transform="translate(-13.3 -89.75)"/><rect class="cls-4" x="577.73" y="462.62" width="4.96" height="15.88" transform="matrix(0.99, 0.13, -0.13, 0.99, 54.13, -162.46)"/><path class="cls-5" d="M584.69,437.56s-22.47,29.49-4.27,31.93C598.34,471.88,584.69,437.56,584.69,437.56Z" transform="translate(-13.3 -89.75)"/><path class="cls-6" d="M584.69,437.56l-4.27,31.93C598.34,471.88,584.69,437.56,584.69,437.56Z" transform="translate(-13.3 -89.75)"/><path class="cls-6" d="M563.86,480.43a2.94,2.94,0,0,1,5,1.13c.93-1.41,3-1.15,4.66-.73a8.15,8.15,0,0,1,2-4.91c1.94-1.95,5.05-2.11,7.75-1.63a10.91,10.91,0,0,1,4.78,1.89,5.52,5.52,0,0,1,2.28,4.44,3.45,3.45,0,0,1,5.94,2,4.19,4.19,0,0,1,5.83,4L563,481.55Z" transform="translate(-13.3 -89.75)"/><rect class="cls-4" x="556.98" y="535.54" width="6.06" height="19.4" transform="translate(13.02 -115.54) rotate(2.7)"/><path class="cls-5" d="M562,504.61s-24.27,38.24-1.86,39.3C582.22,545,562,504.61,562,504.61Z" transform="translate(-13.3 -89.75)"/><path class="cls-6" d="M562,504.61l-1.86,39.3C582.22,545,562,504.61,562,504.61Z" transform="translate(-13.3 -89.75)"/><rect class="cls-4" x="579.09" y="520.26" width="6.06" height="19.4" transform="translate(38.34 -141.44) rotate(5.32)"/><path class="cls-5" d="M586,489.46s-26,37.09-3.65,39.17C604.31,530.68,586,489.46,586,489.46Z" transform="translate(-13.3 -89.75)"/><path class="cls-6" d="M586,489.46l-3.65,39.17C604.31,530.68,586,489.46,586,489.46Z" transform="translate(-13.3 -89.75)"/><rect class="cls-24" x="579.83" y="508.62" width="3.83" height="56.11" rx="1.24" transform="translate(-14.31 -88.66) rotate(-0.11)"/><path class="cls-24" d="M559.53,513s13.3,3.18,22-3.22C571.35,506.08,559.53,513,559.53,513Z" transform="translate(-13.3 -89.75)"/><path class="cls-25" d="M581.48,509.73l-22,3.22S572.83,516.13,581.48,509.73Z" transform="translate(-13.3 -89.75)"/><path class="cls-24" d="M596.53,526s-4.88-12.78-15-16.31C584.18,520.15,596.53,526,596.53,526Z" transform="translate(-13.3 -89.75)"/><path class="cls-25" d="M581.48,509.73l15,16.31S591.65,513.26,581.48,509.73Z" transform="translate(-13.3 -89.75)"/><path class="cls-24" d="M590.52,489.46s-9.81,9.53-9,20.27C590,503.13,590.52,489.46,590.52,489.46Z" transform="translate(-13.3 -89.75)"/><path class="cls-25" d="M581.48,509.73l9-20.27S580.71,499,581.48,509.73Z" transform="translate(-13.3 -89.75)"/><path class="cls-24" d="M586.62,510.34a4.93,4.93,0,1,1-4.94-4.92A4.93,4.93,0,0,1,586.62,510.34Z" transform="translate(-13.3 -89.75)"/><path class="cls-25" d="M585,510.35a3.28,3.28,0,1,1-3.29-3.27A3.27,3.27,0,0,1,585,510.35Z" transform="translate(-13.3 -89.75)"/><path class="cls-24" d="M536.8,494.9H538A1.06,1.06,0,0,1,539,496v46.19a1.07,1.07,0,0,1-1.07,1.07H536.8a1.06,1.06,0,0,1-1.06-1.06V496a1.07,1.07,0,0,1,1.07-1.07Z" transform="translate(-14.43 -88.58) rotate(-0.12)"/><path class="cls-24" d="M518.26,498.63s11.45,2.74,18.9-2.78C528.44,492.71,518.26,498.63,518.26,498.63Z" transform="translate(-13.3 -89.75)"/><path class="cls-25" d="M537.16,495.85l-18.9,2.78S529.71,501.37,537.16,495.85Z" transform="translate(-13.3 -89.75)"/><path class="cls-24" d="M550.12,509.9s-4.2-11-13-14C539.49,504.83,550.12,509.9,550.12,509.9Z" transform="translate(-13.3 -89.75)"/><path class="cls-25" d="M537.16,495.85l13,14S545.92,498.9,537.16,495.85Z" transform="translate(-13.3 -89.75)"/><path class="cls-24" d="M544.94,478.4s-8.45,8.21-7.78,17.45C544.48,490.17,544.94,478.4,544.94,478.4Z" transform="translate(-13.3 -89.75)"/><path class="cls-25" d="M537.16,495.85l7.78-17.45S536.49,486.61,537.16,495.85Z" transform="translate(-13.3 -89.75)"/><path class="cls-24" d="M541.59,496.38a4.25,4.25,0,1,1-4.26-4.24A4.25,4.25,0,0,1,541.59,496.38Z" transform="translate(-13.3 -89.75)"/><path class="cls-25" d="M540.16,496.39a2.82,2.82,0,1,1-2.83-2.82A2.82,2.82,0,0,1,540.16,496.39Z" transform="translate(-13.3 -89.75)"/><path class="cls-5" d="M340.24,529.22a33.85,33.85,0,0,1,1.58-5.61,24,24,0,0,1,10.47-12l-.9,6a12,12,0,0,1-1.19,4.26,4.11,4.11,0,0,1-3.57,2.24,5.07,5.07,0,0,0,3.56,2.22c-2.71,5.66-2.73,12.21-4.49,18.24-1.63,5.63-5.21-1.9-5.71-4A26.28,26.28,0,0,1,340.24,529.22Z" transform="translate(-13.3 -89.75)"/><path class="cls-47" d="M334.41,530.15a34.59,34.59,0,0,0-4.69-3.46,24,24,0,0,0-15.64-3.1l4.4,4.21a12.14,12.14,0,0,0,3.54,2.64,4.13,4.13,0,0,0,4.2-.42,5.11,5.11,0,0,1-1.46,3.94c5.62,2.81,9.65,8,14.73,11.66,4.75,3.44,2.95-4.7,2.05-6.69A26.46,26.46,0,0,0,334.41,530.15Z" transform="translate(-13.3 -89.75)"/><path class="cls-47" d="M324.81,542.75a35.58,35.58,0,0,0-5.51,1.92,24.07,24.07,0,0,0-11.39,11.17l6-1.26a11.94,11.94,0,0,0,4.18-1.44,4.08,4.08,0,0,0,2-3.7,5.09,5.09,0,0,1,2.43,3.43c5.49-3,12-3.47,17.94-5.58,5.52-2-2.21-5.09-4.36-5.47A26.56,26.56,0,0,0,324.81,542.75Z" transform="translate(-13.3 -89.75)"/><path class="cls-37" d="M329,536.05a33.18,33.18,0,0,0-5.79-.7,24,24,0,0,0-15.15,5l5.91,1.5a12.11,12.11,0,0,0,4.38.55,4.11,4.11,0,0,0,3.45-2.43,5.08,5.08,0,0,1,.67,4.14c6.27-.32,12.32,2.19,18.56,2.9,5.83.66.26-5.54-1.51-6.83A26.39,26.39,0,0,0,329,536.05Z" transform="translate(-13.3 -89.75)"/><path class="cls-47" d="M352,531.23a33.39,33.39,0,0,1,5.08-2.86A24,24,0,0,1,373,527.19l-4.88,3.64a12.06,12.06,0,0,1-3.84,2.19,4.08,4.08,0,0,1-4.12-.93,5.12,5.12,0,0,0,1,4.09c-5.92,2.1-10.55,6.74-16,9.78-5.13,2.84-2.36-5-1.22-6.88A26.29,26.29,0,0,1,352,531.23Z" transform="translate(-13.3 -89.75)"/><path class="cls-47" d="M360,544.9a35.77,35.77,0,0,1,5.23,2.58,24.05,24.05,0,0,1,10,12.47l-5.77-2a12,12,0,0,1-4-1.94,4.08,4.08,0,0,1-1.55-3.92,5.08,5.08,0,0,0-2.83,3.1c-5.08-3.69-11.52-4.9-17.13-7.72-5.24-2.63,2.82-4.78,5-4.89A26.6,26.6,0,0,1,360,544.9Z" transform="translate(-13.3 -89.75)"/><path class="cls-37" d="M356.67,537.74a34.39,34.39,0,0,1,5.83,0,24,24,0,0,1,14.42,6.81l-6,.77a11.94,11.94,0,0,1-4.42,0,4.1,4.1,0,0,1-3.12-2.83,5,5,0,0,0-1.17,4c-6.19-1.08-12.5.67-18.78.61-5.86,0,.42-5.53,2.33-6.59A26.49,26.49,0,0,1,356.67,537.74Z" transform="translate(-13.3 -89.75)"/><path class="cls-5" d="M429.32,568a30.76,30.76,0,0,1-.54-5.32,22,22,0,0,1,4.84-13.79q.64,2.72,1.27,5.43a11.08,11.08,0,0,1,.43,4,3.75,3.75,0,0,1-2.28,3.11,4.61,4.61,0,0,0,3.78.69c-.4,5.74,1.79,11.33,2.33,17.06.51,5.35-5.08.14-6.22-1.5A24.12,24.12,0,0,1,429.32,568Z" transform="translate(-13.3 -89.75)"/><path class="cls-47" d="M424.68,570.78a32,32,0,0,0-5.17-1.37,22.05,22.05,0,0,0-14.38,2.64l5.17,2.1a11.09,11.09,0,0,0,3.91,1.05,3.74,3.74,0,0,0,3.44-1.77,4.7,4.7,0,0,1,.09,3.85c5.73.49,10.91,3.53,16.48,5,5.21,1.33.93-5-.51-6.39A24.32,24.32,0,0,0,424.68,570.78Z" transform="translate(-13.3 -89.75)"/><path class="cls-47" d="M420.75,584.75a31.41,31.41,0,0,0-4,3.5,22,22,0,0,0-5.94,13.36l4.66-3.09a11,11,0,0,0,3.07-2.63,3.76,3.76,0,0,0,.47-3.84,4.68,4.68,0,0,1,3.23,2.1c3.64-4.45,9.07-7,13.39-10.81,4-3.55-3.6-3.59-5.56-3.18A24.13,24.13,0,0,0,420.75,584.75Z" transform="translate(-13.3 -89.75)"/><path class="cls-37" d="M422,577.64a30.49,30.49,0,0,0-5.17,1.36,22,22,0,0,0-11.22,9.37l5.54-.72a10.92,10.92,0,0,0,3.92-1,3.74,3.74,0,0,0,2.11-3.23,4.63,4.63,0,0,1,2,3.3c5.23-2.39,11.23-2.3,16.79-3.8,5.19-1.4-1.66-4.8-3.59-5.3A24.13,24.13,0,0,0,422,577.64Z" transform="translate(-13.3 -89.75)"/><path class="cls-47" d="M440,565.76a31.92,31.92,0,0,1,3.36-4.15,22,22,0,0,1,13.16-6.38L453.59,560a11.08,11.08,0,0,1-2.53,3.15,3.74,3.74,0,0,1-3.82.6,4.65,4.65,0,0,0,2.2,3.16c-4.33,3.79-6.71,9.3-10.36,13.75-3.41,4.15-3.7-3.48-3.36-5.46A24.33,24.33,0,0,1,440,565.76Z" transform="translate(-13.3 -89.75)"/><path class="cls-47" d="M451.44,574.71a30.55,30.55,0,0,1,5.32.43,22,22,0,0,1,12.69,7.26l-5.58.27a11.17,11.17,0,0,1-4-.31,3.77,3.77,0,0,1-2.65-2.81,4.65,4.65,0,0,0-1.36,3.59c-5.57-1.43-11.46-.29-17.2-.79-5.35-.48.79-5,2.61-5.86A24.21,24.21,0,0,1,451.44,574.71Z" transform="translate(-13.3 -89.75)"/><path class="cls-37" d="M446.2,569.73a30.42,30.42,0,0,1,5-2,22,22,0,0,1,14.58.94l-4.89,2.69a11.06,11.06,0,0,1-3.75,1.5,3.74,3.74,0,0,1-3.62-1.36,4.67,4.67,0,0,0,.36,3.83c-5.63,1.17-10.42,4.8-15.79,6.87-5,1.93-1.51-4.85-.24-6.4A24.16,24.16,0,0,1,446.2,569.73Z" transform="translate(-13.3 -89.75)"/><rect class="cls-4" x="405.99" y="487.55" width="4.96" height="15.88"/><path class="cls-5" d="M421.87,551.94s-18.39,32.19,0,32.2C439.92,584.16,421.87,551.94,421.87,551.94Z" transform="translate(-13.3 -89.75)"/><path class="cls-6" d="M421.87,551.94l0,32.2C439.92,584.16,421.87,551.94,421.87,551.94Z" transform="translate(-13.3 -89.75)"/><g class="cls-48"><rect class="cls-4" x="345.17" y="457.38" width="4.96" height="15.88"/><path class="cls-5" d="M361,521.77S342.65,554,361,554C379.1,554,361,521.77,361,521.77Z" transform="translate(-13.3 -89.75)"/><path class="cls-6" d="M361,521.77l0,32.2C379.1,554,361,521.77,361,521.77Z" transform="translate(-13.3 -89.75)"/><rect class="cls-4" x="355.3" y="466.26" width="4.96" height="15.88"/><path class="cls-5" d="M371.17,530.65s-18.39,32.19,0,32.2C389.23,562.87,371.17,530.65,371.17,530.65Z" transform="translate(-13.3 -89.75)"/><path class="cls-6" d="M371.17,530.65l0,32.2C389.23,562.87,371.17,530.65,371.17,530.65Z" transform="translate(-13.3 -89.75)"/><rect class="cls-4" x="372.42" y="475.42" width="3.28" height="10.48"/><path class="cls-5" d="M387.42,548.43s-12.14,21.25,0,21.26C399.33,569.7,387.42,548.43,387.42,548.43Z" transform="translate(-13.3 -89.75)"/><path class="cls-6" d="M387.42,548.43l0,21.26C399.33,569.7,387.42,548.43,387.42,548.43Z" transform="translate(-13.3 -89.75)"/><path class="cls-6" d="M445.24,532.34a34,34,0,0,1-2.59-5,23.31,23.31,0,0,1-.55-15.44l3.34,4.86a11.57,11.57,0,0,1,2,3.79,4,4,0,0,1-1.05,4,4.92,4.92,0,0,0,4-.78c1.82,5.8,6.14,10.45,8.89,15.88,2.56,5.07-4.95,2.1-6.71.93A25.54,25.54,0,0,1,445.24,532.34Z" transform="translate(-13.3 -89.75)"/><path class="cls-6" d="M441.73,536.85a34.2,34.2,0,0,0-5.61.65A23.35,23.35,0,0,0,423,545.65l5.91.07a11.69,11.69,0,0,0,4.25-.47,4,4,0,0,0,2.69-3.07,4.91,4.91,0,0,1,1.57,3.75c5.84-1.73,12.11-.74,18.14-1.49,5.64-.7-1-5.27-3-6.08A25.64,25.64,0,0,0,441.73,536.85Z" transform="translate(-13.3 -89.75)"/><path class="cls-6" d="M443.27,552.12a33.12,33.12,0,0,0-2.63,5,23.26,23.26,0,0,0-.68,15.44l3.38-4.83a11.6,11.6,0,0,0,2-3.78,4,4,0,0,0-1-4,4.91,4.91,0,0,1,4,.82c1.87-5.79,6.22-10.41,9-15.81,2.6-5-4.93-2.14-6.7-1A25.51,25.51,0,0,0,443.27,552.12Z" transform="translate(-13.3 -89.75)"/><path class="cls-6" d="M441.78,544.63a32.35,32.35,0,0,0-4.57,3.33,23.23,23.23,0,0,0-7.41,13.55l5.17-2.84a11.73,11.73,0,0,0,3.47-2.51,4,4,0,0,0,.83-4,4.9,4.9,0,0,1,3.21,2.49c4.23-4.37,10.18-6.6,15.06-10.22,4.56-3.39-3.48-4.09-5.58-3.84A25.57,25.57,0,0,0,441.78,544.63Z" transform="translate(-13.3 -89.75)"/><path class="cls-6" d="M454.88,526a33.42,33.42,0,0,1,1.7-5.39,23.3,23.3,0,0,1,10.49-11.35L466,515.07a11.5,11.5,0,0,1-1.27,4.08,4,4,0,0,1-3.52,2.07,4.89,4.89,0,0,0,3.38,2.25c-2.8,5.4-3,11.75-4.89,17.53-1.75,5.41-5-2-5.41-4.07A25.55,25.55,0,0,1,454.88,526Z" transform="translate(-13.3 -89.75)"/><path class="cls-6" d="M469.59,530.39a32.92,32.92,0,0,1,5.4-1.63A23.29,23.29,0,0,1,490.28,531l-5.39,2.41a11.71,11.71,0,0,1-4.09,1.26,4,4,0,0,1-3.69-1.75,4.94,4.94,0,0,0,.05,4.07c-6,.74-11.4,4.14-17.23,5.85-5.45,1.6-1.17-5.24.3-6.76A25.61,25.61,0,0,1,469.59,530.39Z" transform="translate(-13.3 -89.75)"/><path class="cls-6" d="M462.51,527.51a32.7,32.7,0,0,1,4.13-3.85,23.31,23.31,0,0,1,14.72-4.72l-3.78,4.54a11.39,11.39,0,0,1-3.11,2.93,4,4,0,0,1-4.09.06,4.91,4.91,0,0,0,1.84,3.63c-5.1,3.33-8.41,8.74-12.89,12.85-4.19,3.84-3.36-4.19-2.71-6.2A25.6,25.6,0,0,1,462.51,527.51Z" transform="translate(-13.3 -89.75)"/></g><circle class="cls-49" cx="406.47" cy="310.85" r="22.78"/><path class="cls-18" d="M634.46,777.18l0,0a.3.3,0,0,1,.42,0l33.65,31.79a.31.31,0,0,1,0,.4l-2.08,2.85a.28.28,0,0,1-.38.08l-40.45-22.47a.29.29,0,0,1-.11-.4.29.29,0,0,1,.4-.12l40.22,22.34,1.76-2.42L634.5,777.58A.31.31,0,0,1,634.46,777.18Z" transform="translate(-13.3 -89.75)"/><path class="cls-18" d="M635.88,778.52a.28.28,0,0,1,.23-.12.3.3,0,0,1,.31.28l.79,16.69,15.46-1.31a.3.3,0,0,1,.32.22l3.12,11.63,8.8-.31a.31.31,0,0,1,.31.29.3.3,0,0,1-.29.31l-9,.32a.3.3,0,0,1-.3-.22l-3.12-11.62L637,796a.29.29,0,0,1-.22-.07.36.36,0,0,1-.11-.21l-.8-17A.33.33,0,0,1,635.88,778.52Z" transform="translate(-13.3 -89.75)"/><path class="cls-18" d="M627.32,790.27a.34.34,0,0,1,.17-.11l16.42-4.45a.31.31,0,0,1,.23,0,.3.3,0,0,1,.14.19l3.51,15.17,12-.6a.3.3,0,0,1,.3.22l2.47,8.7a.29.29,0,0,1-.2.37.3.3,0,0,1-.37-.2l-2.41-8.48-12,.61a.32.32,0,0,1-.31-.24l-3.5-15.11-16.12,4.37a.29.29,0,0,1-.36-.21A.3.3,0,0,1,627.32,790.27Z" transform="translate(-13.3 -89.75)"/><path class="cls-18" d="M660.57,819.34l13.11-18a.3.3,0,0,1,.48.36l-13.11,18a.3.3,0,1,1-.48-.36Z" transform="translate(-13.3 -89.75)"/><path class="cls-18" d="M673.1,800a.26.26,0,0,1,.13-.1.29.29,0,0,1,.39.15l1.15,2.66a.29.29,0,0,1-.15.39.3.3,0,0,1-.4-.16l-1.15-2.65A.3.3,0,0,1,673.1,800Z" transform="translate(-13.3 -89.75)"/><path class="cls-18" d="M670.86,803.09a.23.23,0,0,1,.12-.1.3.3,0,0,1,.4.15l1.15,2.66a.3.3,0,1,1-.55.23l-1.15-2.65A.27.27,0,0,1,670.86,803.09Z" transform="translate(-13.3 -89.75)"/><path class="cls-18" d="M669.22,805.34a.3.3,0,0,1,.52.06l1.15,2.65a.29.29,0,0,1-.16.39.29.29,0,0,1-.39-.15l-1.15-2.66A.27.27,0,0,1,669.22,805.34Z" transform="translate(-13.3 -89.75)"/><path class="cls-18" d="M659,819.32a.29.29,0,0,1,.27-.13l2.88.29a.29.29,0,0,1,.27.32.3.3,0,0,1-.33.27l-2.87-.28a.3.3,0,0,1-.27-.33A.24.24,0,0,1,659,819.32Z" transform="translate(-13.3 -89.75)"/><path class="cls-18" d="M661.29,816.24a.29.29,0,0,1,.27-.13l2.87.29a.3.3,0,0,1,0,.59l-2.88-.28a.3.3,0,0,1-.27-.33A.35.35,0,0,1,661.29,816.24Z" transform="translate(-13.3 -89.75)"/><path class="cls-18" d="M662.93,814a.3.3,0,0,1,.27-.12l2.87.28a.3.3,0,0,1,.27.33.29.29,0,0,1-.32.27l-2.88-.28a.3.3,0,0,1-.27-.33A.47.47,0,0,1,662.93,814Z" transform="translate(-13.3 -89.75)"/><path class="cls-24" d="M670.88,720H672a1,1,0,0,1,1,1v45.29a1,1,0,0,1-1,1h-1.15a1,1,0,0,1-1-1V721A1,1,0,0,1,670.88,720Z" transform="translate(-207.91 1157.73) rotate(-78.11)"/><path class="cls-24" d="M687.22,766.13s-.33-11.54,6.46-17.58C694.94,757.55,687.22,766.13,687.22,766.13Z" transform="translate(-13.3 -89.75)"/><path class="cls-25" d="M693.68,748.55l-6.46,17.58S686.89,754.59,693.68,748.55Z" transform="translate(-13.3 -89.75)"/><path class="cls-24" d="M682.81,733.29s9.71,6.24,10.87,15.26C685.54,744.51,682.81,733.29,682.81,733.29Z" transform="translate(-13.3 -89.75)"/><path class="cls-25" d="M693.68,748.55l-10.87-15.26S692.52,739.53,693.68,748.55Z" transform="translate(-13.3 -89.75)"/><path class="cls-24" d="M712,744.59s-9.58,6.46-18.32,4C700.61,742.66,712,744.59,712,744.59Z" transform="translate(-13.3 -89.75)"/><path class="cls-25" d="M693.68,748.55l18.32-4S702.42,751.05,693.68,748.55Z" transform="translate(-13.3 -89.75)"/><path class="cls-24" d="M694.06,744.19a4.16,4.16,0,1,0,3.22,4.94A4.15,4.15,0,0,0,694.06,744.19Z" transform="translate(-13.3 -89.75)"/><path class="cls-25" d="M693.77,745.56a2.76,2.76,0,1,0,2.14,3.28A2.77,2.77,0,0,0,693.77,745.56Z" transform="translate(-13.3 -89.75)"/><rect class="cls-24" x="652.19" y="737.03" width="3.54" height="51.81" rx="1.14" transform="translate(-241.2 1154.92) rotate(-78.05)"/><path class="cls-24" d="M671.19,787.5s-.36-12.63,7.07-19.23C679.64,778.11,671.19,787.5,671.19,787.5Z" transform="translate(-13.3 -89.75)"/><path class="cls-25" d="M678.26,768.27l-7.07,19.23S670.83,774.87,678.26,768.27Z" transform="translate(-13.3 -89.75)"/><path class="cls-24" d="M666.37,751.59s10.62,6.82,11.89,16.68C669.35,763.86,666.37,751.59,666.37,751.59Z" transform="translate(-13.3 -89.75)"/><path class="cls-25" d="M678.26,768.27l-11.89-16.68S677,758.41,678.26,768.27Z" transform="translate(-13.3 -89.75)"/><path class="cls-24" d="M698.29,763.94s-10.47,7.06-20,4.33C685.83,761.83,698.29,763.94,698.29,763.94Z" transform="translate(-13.3 -89.75)"/><path class="cls-25" d="M678.26,768.27l20-4.33S687.82,771,678.26,768.27Z" transform="translate(-13.3 -89.75)"/><path class="cls-24" d="M678.68,763.51a4.55,4.55,0,1,0,3.51,5.4A4.55,4.55,0,0,0,678.68,763.51Z" transform="translate(-13.3 -89.75)"/><path class="cls-25" d="M678.36,765a3,3,0,1,0,2.33,3.59A3,3,0,0,0,678.36,765Z" transform="translate(-13.3 -89.75)"/><path class="cls-37" d="M680.12,708.09s-33.93,26-67.28,25.7-58.08-1.9-58.08-1.9-8.8.35-9.14-15.55-2.55-17.49-6.69-18-6.26,3-12.91,13.06-39.44,62.12-39.44,62.12l40.21,83.21s4,5.08,8.54,3,4.86-16.37,4.86-16.37.66-10.37,15.26-9.61,38-2.71,55.84-12.87Z" transform="translate(-13.3 -89.75)"/><path class="cls-8" d="M545.89,752.21c3.14-6.73,7-13.26,9.45-20.29l-.58,0s-8.8.35-9.14-15.55-2.55-17.49-6.69-18-6.26,3-12.91,13.06-39.44,62.12-39.44,62.12l40.21,83.21s4,5.08,8.54,3,4.86-16.37,4.86-16.37a10.18,10.18,0,0,1,2.85-5.86c-2.6-13.27-6.32-26.5-6.86-40C535.55,782,539.28,766.35,545.89,752.21Z" transform="translate(-13.3 -89.75)"/><path class="cls-29" d="M535.33,859.8c4.59-2,4.86-16.37,4.86-16.37a10.18,10.18,0,0,1,2.85-5.86c-2.6-13.27-6.32-26.5-6.86-40-.63-15.6,3.1-31.23,9.71-45.37,3.14-6.73,7-13.26,9.45-20.29l-.58,0s-8.8.35-9.14-15.55-2.55-17.49-6.69-18c-3.28-.37-5.31,1.78-9.34,7.71a14.4,14.4,0,0,1,7.08,5c1.74,2.28,3.31,4.91,3.33,7.78,0,4-3,7.45-6.23,9.79s-7,4.07-9.84,7-4.46,7.5-2.4,11c1.66,2.77,5,3.87,7.74,5.64s4.93,5.53,3,8.09c-1.53,2-4.71,1.95-6.3,3.88-3,3.69,2.65,8.6,2.77,13.38,0,2-1,3.94-1.63,5.87a18.35,18.35,0,0,0,.45,13c1,2.42,2.63,4.88,2.09,7.45-.31,1.51-1.33,2.79-1.74,4.27-1.68,5.94,6.59,11.18,5.19,17.19-1.08,4.63-6.83,5.6-8.33,9.8a4,4,0,0,0-.26,1.58c.19,4.07,5.27,5.87,7,9.34s1.88,7.62-.23,10.86a18.26,18.26,0,0,1-1.71,2.19A6.05,6.05,0,0,0,535.33,859.8Z" transform="translate(-13.3 -89.75)"/><path class="cls-22" d="M555.45,833.82c14.61.75,38-2.71,55.84-12.87l68.83-112.86a153.29,153.29,0,0,1-39.43,20.78,9.23,9.23,0,0,1-1.28,4.15c-3.11,5.29-8.5,9.26-13.85,12-7.72,4-16.26,6.22-24.11,10s-15.32,9.67-17.89,18c-3.36,10.92,2,24.68-5.74,33.08-6.07,6.6-17.27,6-23.5,12.46-3.84,4-4.92,10-3.7,15.43A23.94,23.94,0,0,1,555.45,833.82Z" transform="translate(-13.3 -89.75)"/><path class="cls-34" d="M616.56,728.07s88.82-8.76,75.57-90.44l-33-56.2s-6.08-16.38-19.24-8.65l-70.8,41.61s-14,4.68-3.38,21.62Z" transform="translate(-13.3 -89.75)"/><path class="cls-39" d="M634.64,681.79c2.93-7.6,2-16.42,5.61-23.7,4.67-9.3,15.44-13.58,22.86-20.88A48.39,48.39,0,0,0,672,624.56a64,64,0,0,0,4.88-12.87l-17.79-30.26s-6.08-16.38-19.24-8.65l-70.8,41.61s-14,4.68-3.38,21.62l36.46,66a56.17,56.17,0,0,0,11.21-2.13C622.55,697,631.18,690.79,634.64,681.79Z" transform="translate(-13.3 -89.75)"/><path class="cls-38" d="M613.34,699.84c9.21-2.83,17.84-9.05,21.3-18.05,2.93-7.6,2-16.42,5.61-23.7,4.67-9.3,15.44-13.58,22.86-20.88A48.39,48.39,0,0,0,672,624.56a64,64,0,0,0,4.88-12.87l-5-8.54a50.92,50.92,0,0,1-5.3,12A47.79,47.79,0,0,1,650,631.64c-7.42,4.33-16.52,7.16-20.73,14.65-3.59,6.39-2.47,14.3-4,21.47a29.78,29.78,0,0,1-18.81,21.5,39.34,39.34,0,0,1-10.27,2L602.13,702A56.17,56.17,0,0,0,613.34,699.84Z" transform="translate(-13.3 -89.75)"/><rect x="613.42" y="609.79" width="2.87" height="21.28" transform="translate(1465.02 662.56) rotate(143.43)"/><polygon class="cls-40" points="603.58 485.31 604.97 487.18 615.21 518.54 577.58 546.47 576.6 545.14 603.58 485.31"/><polygon class="cls-41" points="603.58 485.31 567.78 511.87 576.6 545.14 613.97 517.42 603.58 485.31"/><polygon class="cls-42" points="602.07 490.19 570.73 513.45 578.1 540.26 610.35 516.34 602.07 490.19"/><path class="cls-43" d="M591.4,630,584,603.2l.48-.36c4.52,2.65,18.32,8.72,37.8-1l1.34,4.22Z" transform="translate(-13.3 -89.75)"/><rect class="cls-41" x="610.24" y="583.75" width="1.3" height="31.4" transform="translate(-162.3 115.88) rotate(-17.06)"/><rect class="cls-41" x="602.76" y="589.3" width="1.3" height="31.4" transform="translate(-164.26 113.93) rotate(-17.06)"/><rect class="cls-41" x="595.28" y="594.85" width="1.3" height="31.4" transform="matrix(0.96, -0.29, 0.29, 0.96, -166.23, 112)"/><rect class="cls-41" x="583.09" y="603.99" width="41.51" height="1.3" transform="translate(-254.68 389.14) rotate(-36.58)"/><rect x="600.64" y="810.99" width="1.35" height="10.03" transform="translate(-107.27 -11.33) rotate(-6.92)"/><polygon class="cls-40" points="576.6 744.38 576.47 743.28 579.59 728.04 601.52 725.38 601.61 726.15 576.6 744.38"/><polygon class="cls-41" points="576.6 744.38 597.46 741.84 601.61 726.15 579.83 728.79 576.6 744.38"/><polygon class="cls-42" points="578.36 742.73 596.62 740.51 599.86 727.8 581.06 730.08 578.36 742.73"/><path class="cls-43" d="M613.16,817.55l-3.24,12.71-.27,0c-1.24-2.13-5.48-7.84-15.72-8.42l.44-2Z" transform="translate(-13.3 -89.75)"/><rect class="cls-41" x="590.64" y="825.23" width="14.8" height="0.61" transform="translate(-351.31 1139.48) rotate(-77.41)"/><rect class="cls-41" x="595.01" y="824.7" width="14.8" height="0.61" transform="translate(-347.39 1143.3) rotate(-77.41)"/><rect class="cls-41" x="599.37" y="824.17" width="14.8" height="0.61" transform="translate(-343.45 1147.18) rotate(-77.41)"/><rect class="cls-41" x="592.36" y="824.74" width="19.57" height="0.61" transform="translate(-108.33 -11.19) rotate(-6.92)"/><path class="cls-50" d="M622.89,617.57a3.69,3.69,0,0,1,1.14-1.74,3.53,3.53,0,0,1,2.25-.43,20.93,20.93,0,0,1,7.66,1.87,74.65,74.65,0,0,1,5.93-14.39,8.25,8.25,0,0,1,3.21-3.75c2.71-1.36,5.89.38,8.42,2l13,8.62c-3.44,5.5-8.94,9.37-14.59,12.56a118.46,118.46,0,0,1-16.9,7.69c-4.86,1.82-7.63,4-13.17,2.87a.82.82,0,0,1-.43-.2.83.83,0,0,1-.07-.77C620.63,627,620.93,622.34,622.89,617.57Z" transform="translate(-13.3 -89.75)"/><rect class="cls-4" x="662.98" y="638.33" width="5.15" height="16.47" transform="translate(-268.81 444.35) rotate(-37.21)"/><path class="cls-5" d="M644.71,619s5,38.13,20.2,26.61C679.85,634.28,644.71,619,644.71,619Z" transform="translate(-13.3 -89.75)"/><path class="cls-6" d="M644.71,619l20.2,26.61C679.85,634.28,644.71,619,644.71,619Z" transform="translate(-13.3 -89.75)"/><rect class="cls-4" x="655.13" y="660" width="6.06" height="19.4" transform="translate(-292.1 518.46) rotate(-41.74)"/><path class="cls-5" d="M631.14,639.29s9.45,44.29,26.19,29.36C673.81,653.94,631.14,639.29,631.14,639.29Z" transform="translate(-13.3 -89.75)"/><path class="cls-6" d="M631.14,639.29l26.19,29.36C673.81,653.94,631.14,639.29,631.14,639.29Z" transform="translate(-13.3 -89.75)"/><rect class="cls-4" x="618.63" y="695.13" width="6.06" height="19.4" transform="matrix(0.85, -0.52, 0.52, 0.85, -290.71, 341.35)"/><path class="cls-5" d="M600.38,670.16s1.55,45.26,20.64,33.48C639.82,692.05,600.38,670.16,600.38,670.16Z" transform="translate(-13.3 -89.75)"/><path class="cls-6" d="M600.38,670.16,621,703.64C639.82,692.05,600.38,670.16,600.38,670.16Z" transform="translate(-13.3 -89.75)"/><path class="cls-6" d="M639.72,696.21a2.93,2.93,0,0,1,4.38-2.67c-.32-1.66,1.38-2.93,2.85-3.76a8.2,8.2,0,0,1-2-4.93c0-2.75,2.16-5,4.44-6.56a10.86,10.86,0,0,1,4.75-2,5.52,5.52,0,0,1,4.73,1.61,3.44,3.44,0,0,1,5.65-2.68,4.28,4.28,0,0,1,3.18-2.51,4.21,4.21,0,0,1,3.81,1.35l-31.67,23.51Z" transform="translate(-13.3 -89.75)"/><path class="cls-6" d="M618.3,717.67a2.94,2.94,0,0,1,4.71-2c-.08-1.68,1.78-2.71,3.35-3.32a8.15,8.15,0,0,1-1.26-5.16c.42-2.71,2.83-4.67,5.31-5.87a10.77,10.77,0,0,1,5-1.28,5.52,5.52,0,0,1,4.46,2.25,3.45,3.45,0,0,1,6-1.87,4.18,4.18,0,0,1,7.08-.17l-34.64,18.87Z" transform="translate(-13.3 -89.75)"/><path class="cls-6" d="M635.37,591.35a2.64,2.64,0,0,0-.87-1.22c-.87-.54-2,.09-3,.39a5.51,5.51,0,0,1-5.06-1.24,9.81,9.81,0,0,1-2.81-4.59,4.54,4.54,0,0,1-.25-2.41,1.91,1.91,0,0,1,1.69-1.54c1.51,0,2,2,2.31,3.46a4.35,4.35,0,0,0,1.36,2.44,2.15,2.15,0,0,0,2.62.11,2.27,2.27,0,0,0,.49-2.43,7.7,7.7,0,0,0-1.38-2.22,32.77,32.77,0,0,1-5.39-10.45,5.64,5.64,0,0,1-.21-3.55c.43-1.13,1.84-2,2.89-1.35a3.22,3.22,0,0,1,1.14,1.6c1,2.34,1.9,4.7,2.73,7.1.89.29,1.82-.61,1.88-1.54a3.77,3.77,0,0,0-1-2.52,8.27,8.27,0,0,1-1.55-2.32,1.53,1.53,0,0,1,0-1.15,1.38,1.38,0,0,1,1.88-.43,4,4,0,0,1,1.41,1.62,14.59,14.59,0,0,1,2.17,5,4.9,4.9,0,0,1-1.85,4.88c-.43.28-1,.52-1.11,1a1.67,1.67,0,0,0,.17,1q2.45,6,4.88,12c.3.75,1.58,4.51-.45,4C637.13,596.78,635.78,592.25,635.37,591.35Z" transform="translate(-13.3 -89.75)"/><path class="cls-6" d="M582.69,643.82a10.91,10.91,0,0,0-2.43-.28,6.81,6.81,0,0,1-4.37-2.73,20.09,20.09,0,0,1-2.46-4.65c-.3-.72-.58-1.61-.08-2.21s1.76-.36,2.31.34a9.1,9.1,0,0,1,1,2.47c.31.83,1,1.68,1.85,1.71a.82.82,0,0,0,.65-.24c.32-.37.05-.94-.22-1.36l-6.42-9.61c-.66-1-1.26-2.49-.31-3.21a1.62,1.62,0,0,1,1.83.07,4.56,4.56,0,0,1,1.25,1.47q4.11,6.49,7.61,13.35c.65.27,1.41-.37,1.5-1.07a2.92,2.92,0,0,0-.69-2,6.18,6.18,0,0,1-1.08-1.83,1.3,1.3,0,0,1,.09-1.06,1.25,1.25,0,0,1,1.71-.19,3.62,3.62,0,0,1,1.11,1.54c.5,1,1,2.11,1.51,3.16s1.05,2.59.25,3.56c-.4.49-1.06.74-1.37,1.28a2.07,2.07,0,0,0,.1,1.84,16,16,0,0,1,.88,1.69c.48,1.4-.68,2.6-1.72,1.41S584.47,644.47,582.69,643.82Z" transform="translate(-13.3 -89.75)"/><path class="cls-18" d="M573.91,746.93H574a.38.38,0,0,1,.4.38l2.12,61.07a.4.4,0,0,1-.33.4l-4.6.76a.39.39,0,0,1-.44-.28L554,750.64a.4.4,0,1,1,.76-.22l17,58.28,3.91-.64-2.11-60.72A.4.4,0,0,1,573.91,746.93Z" transform="translate(-13.3 -89.75)"/><path class="cls-18" d="M574,749.51a.39.39,0,0,1,.33.09.39.39,0,0,1,0,.56l-14.73,16.4,15.73,13.11a.39.39,0,0,1,.09.5L567.59,794l8.55,7.87a.39.39,0,0,1,0,.56.4.4,0,0,1-.56,0l-8.79-8.08a.41.41,0,0,1-.07-.49l7.85-13.8L558.81,766.9a.37.37,0,0,1-.15-.27.45.45,0,0,1,.1-.3l15-16.7A.4.4,0,0,1,574,749.51Z" transform="translate(-13.3 -89.75)"/><path class="cls-18" d="M555.07,752.61a.35.35,0,0,1,.26,0l19.55,11.05a.38.38,0,0,1,.14.55l-10.78,17.51,11.85,10.58a.41.41,0,0,1,.08.49l-5.75,10.46a.4.4,0,0,1-.54.16.41.41,0,0,1-.16-.54l5.61-10.18-11.86-10.6a.39.39,0,0,1-.08-.5l10.74-17.44-19.19-10.85a.4.4,0,0,1-.15-.54A.35.35,0,0,1,555.07,752.61Z" transform="translate(-13.3 -89.75)"/><path class="cls-18" d="M559.32,810.74l29-4.75a.4.4,0,1,1,.13.78l-29,4.75a.4.4,0,0,1-.46-.33A.39.39,0,0,1,559.32,810.74Z" transform="translate(-13.3 -89.75)"/><path class="cls-18" d="M589,804.21a.38.38,0,0,1,.21,0,.39.39,0,0,1,.22.51l-1.37,3.56a.4.4,0,1,1-.74-.29l1.38-3.55A.38.38,0,0,1,589,804.21Z" transform="translate(-13.3 -89.75)"/><path class="cls-18" d="M584.07,805a.46.46,0,0,1,.2,0,.4.4,0,0,1,.23.52l-1.38,3.55a.39.39,0,0,1-.51.23.4.4,0,0,1-.23-.51l1.38-3.56A.38.38,0,0,1,584.07,805Z" transform="translate(-13.3 -89.75)"/><path class="cls-18" d="M580.44,805.62a.31.31,0,0,1,.21,0,.39.39,0,0,1,.22.51l-1.38,3.56a.39.39,0,0,1-.51.22.39.39,0,0,1-.22-.51l1.37-3.56A.42.42,0,0,1,580.44,805.62Z" transform="translate(-13.3 -89.75)"/><path class="cls-18" d="M557.92,809.3a.39.39,0,0,1,.36.14l2.44,2.93a.4.4,0,0,1-.05.56.38.38,0,0,1-.55,0l-2.44-2.94a.39.39,0,0,1,.05-.55A.34.34,0,0,1,557.92,809.3Z" transform="translate(-13.3 -89.75)"/><path class="cls-18" d="M562.88,808.49a.39.39,0,0,1,.37.14l2.44,2.93a.4.4,0,0,1-.61.51l-2.44-2.94a.4.4,0,0,1,.05-.56A.46.46,0,0,1,562.88,808.49Z" transform="translate(-13.3 -89.75)"/><path class="cls-18" d="M566.51,807.9a.39.39,0,0,1,.37.13l2.44,2.94a.39.39,0,0,1-.61.5l-2.44-2.93a.4.4,0,0,1,.05-.56A.33.33,0,0,1,566.51,807.9Z" transform="translate(-13.3 -89.75)"/><path class="cls-18" d="M580.87,806.36l-.12,0a.23.23,0,0,1-.06-.3,21.5,21.5,0,0,1,4.22-4.24,44.22,44.22,0,0,1,14.76-7.43c23.22-7.05,53.1-.21,74.08,6.77a.21.21,0,0,1,.13.27.21.21,0,0,1-.27.14c-20.9-7-50.66-13.79-73.77-6.78-13.81,4.18-18.74,11.43-18.79,11.51A.21.21,0,0,1,580.87,806.36Z" transform="translate(-13.3 -89.75)"/><path class="cls-18" d="M567.79,809.35a.24.24,0,0,1-.16-.07.22.22,0,0,1,0-.31,85.46,85.46,0,0,1,30.09-15.92,78.62,78.62,0,0,1,32.65-2.73c13.59,1.75,27,7.14,40,16a.21.21,0,0,1,.06.29.21.21,0,0,1-.3.06c-12.88-8.85-26.26-14.22-39.78-16a78.48,78.48,0,0,0-32.47,2.72,85.05,85.05,0,0,0-29.93,15.83A.2.2,0,0,1,567.79,809.35Z" transform="translate(-13.3 -89.75)"/><path class="cls-18" d="M664.71,814.52a.21.21,0,0,1-.12,0c-29.82-19.88-55.27-27.35-75.64-22.22A43.15,43.15,0,0,0,569.42,803a32.17,32.17,0,0,0-5.81,7.22.23.23,0,0,1-.29.09.21.21,0,0,1-.09-.29c.07-.14,7.38-13.53,25.61-18.13,20.5-5.17,46.06,2.33,76,22.28a.21.21,0,0,1,.06.3A.22.22,0,0,1,664.71,814.52Z" transform="translate(-13.3 -89.75)"/><path class="cls-18" d="M661.05,819.91a.2.2,0,0,1-.16-.07c-18.46-20.34-37.41-30.64-56.34-30.64l-1.62,0c-26.43.81-43.6,21.88-43.77,22.1a.22.22,0,0,1-.3,0,.21.21,0,0,1,0-.3c.17-.22,17.46-21.44,44.09-22.26.54,0,1.08,0,1.63,0,19.06,0,38.11,10.35,56.66,30.78a.21.21,0,0,1,0,.3A.2.2,0,0,1,661.05,819.91Z" transform="translate(-13.3 -89.75)"/><rect class="cls-4" x="573.1" y="739.39" width="4.66" height="14.9" transform="translate(1221.69 1330.79) rotate(173.22)"/><path class="cls-5" d="M579.06,777.88s13.55-32-3.57-30C558.64,749.88,579.06,777.88,579.06,777.88Z" transform="translate(-13.3 -89.75)"/><path class="cls-6" d="M579.06,777.88l-3.57-30C558.64,749.88,579.06,777.88,579.06,777.88Z" transform="translate(-13.3 -89.75)"/><rect class="cls-4" x="546.76" y="763.24" width="4.66" height="14.9" transform="translate(1172.02 1381.41) rotate(173.22)"/><path class="cls-5" d="M552.71,801.73s13.55-32-3.56-30C532.3,773.72,552.71,801.73,552.71,801.73Z" transform="translate(-13.3 -89.75)"/><path class="cls-6" d="M552.71,801.73l-3.56-30C532.3,773.72,552.71,801.73,552.71,801.73Z" transform="translate(-13.3 -89.75)"/><rect class="cls-4" x="599.87" y="758.82" width="3.17" height="10.15" transform="translate(1367.9 1254.9) rotate(164.89)"/><path class="cls-5" d="M607,784.47s6-23-5.36-19.89C590.43,767.6,607,784.47,607,784.47Z" transform="translate(-13.3 -89.75)"/><path class="cls-6" d="M607,784.47l-5.36-19.89C590.43,767.6,607,784.47,607,784.47Z" transform="translate(-13.3 -89.75)"/><rect class="cls-4" x="612.71" y="759.51" width="3.17" height="10.15" transform="translate(1479.49 1110.96) rotate(155.18)"/><path class="cls-5" d="M623.2,783.94s2-23.62-8.65-18.69C604.06,770.1,623.2,783.94,623.2,783.94Z" transform="translate(-13.3 -89.75)"/><path class="cls-6" d="M623.2,783.94l-8.65-18.69C604.06,770.1,623.2,783.94,623.2,783.94Z" transform="translate(-13.3 -89.75)"/><rect class="cls-4" x="637.82" y="764.55" width="1.99" height="6.38" transform="translate(1618.9 781.39) rotate(135.71)"/><path class="cls-5" d="M648.14,777.34s-3.75-14.42-9-9.26S648.14,777.34,648.14,777.34Z" transform="translate(-13.3 -89.75)"/><path class="cls-6" d="M648.14,777.34l-9-9.26C633.9,773.15,648.14,777.34,648.14,777.34Z" transform="translate(-13.3 -89.75)"/><path class="cls-6" d="M620,754.81a2,2,0,0,1-1.67,1.18,2.07,2.07,0,0,1-1.85-.88c-.31,1.11-1.75,1.37-2.9,1.43a5.63,5.63,0,0,1-.31,3.63c-.87,1.68-2.88,2.43-4.75,2.67a7.47,7.47,0,0,1-3.52-.26,3.76,3.76,0,0,1-2.41-2.44,2.38,2.38,0,0,1-4.31-.09,2.88,2.88,0,0,1-4.65-1.44l26.7-4.71Z" transform="translate(-13.3 -89.75)"/><path class="cls-6" d="M594.41,738.53a2,2,0,0,1-3.51-.35c-.51,1-2,1-3.12.88a5.62,5.62,0,0,1-1,3.52c-1.16,1.49-3.27,1.86-5.15,1.76a7.59,7.59,0,0,1-3.42-.89,3.81,3.81,0,0,1-1.93-2.84,2.37,2.37,0,0,1-4.21-.87,2.89,2.89,0,0,1-4.32-2.26l27.11.21Z" transform="translate(-13.3 -89.75)"/><path class="cls-8" d="M531.63,733.45a8,8,0,0,0-4.18,4.68,2.42,2.42,0,0,0,.13,2,2.67,2.67,0,0,0,1.45.94,11.12,11.12,0,0,0,9.92-1.47c1.54-1.1,2.87-2.9,2.48-4.76-.35-1.66-1.9-3.67-3.73-3.32A22.64,22.64,0,0,0,531.63,733.45Z" transform="translate(-13.3 -89.75)"/><path class="cls-8" d="M523.41,743.47a3.16,3.16,0,0,0,.19,1.62,3.12,3.12,0,0,0,1.57,1.25,4.67,4.67,0,0,0,1,.4,2.86,2.86,0,0,0,3.18-1.75,3.26,3.26,0,0,0-1-3.59C526.21,739.61,523.57,740.77,523.41,743.47Z" transform="translate(-13.3 -89.75)"/><path class="cls-8" d="M528.33,840.35a2.3,2.3,0,0,0,1.26.41,2.5,2.5,0,0,0,1.92-1.38,4.54,4.54,0,0,0,.47-3.73,3.57,3.57,0,0,0-2.79-2.4C524.74,832.65,525.75,838.79,528.33,840.35Z" transform="translate(-13.3 -89.75)"/><path class="cls-29" d="M525.65,830.3a1.11,1.11,0,0,0,.6.39,2.49,2.49,0,0,0,2.08-.26,2.37,2.37,0,0,0,1.06-1.81,1.15,1.15,0,0,0-.1-.58C528.19,825.77,524.34,828.44,525.65,830.3Z" transform="translate(-13.3 -89.75)"/><rect x="583.4" y="814.94" width="1.65" height="12.21" transform="translate(-107.98 -13.37) rotate(-6.92)"/><polygon class="cls-40" points="557.03 753.34 556.87 752.01 560.67 733.46 587.36 730.22 587.48 731.16 557.03 753.34"/><polygon class="cls-41" points="557.03 753.34 582.42 750.26 587.48 731.16 560.97 734.38 557.03 753.34"/><polygon class="cls-42" points="559.17 751.33 581.4 748.63 585.34 733.17 562.47 735.95 559.17 751.33"/><path class="cls-43" d="M598.64,822.92l-3.94,15.47-.33,0c-1.51-2.61-6.66-9.55-19.13-10.25l.53-2.48Z" transform="translate(-13.3 -89.75)"/><rect class="cls-41" x="571.24" y="832.26" width="18.02" height="0.74" transform="translate(-372.16 1127.65) rotate(-77.41)"/><rect class="cls-41" x="576.55" y="831.61" width="18.02" height="0.74" transform="translate(-367.38 1132.32) rotate(-77.41)"/><rect class="cls-41" x="581.86" y="830.97" width="18.02" height="0.74" transform="translate(-362.59 1137.03) rotate(-77.41)"/><rect class="cls-41" x="573.32" y="831.67" width="23.82" height="0.74" transform="translate(-109.29 -13.17) rotate(-6.92)"/><text class="cls-51" transform="matrix(-0.9, 0.44, -0.44, -0.9, 644.59, 822.65)">G</text><text class="cls-51" transform="translate(610.3 839.45) rotate(160.13)">R</text><text class="cls-51" transform="translate(576.06 851.78) rotate(165.86)">E</text><text class="cls-51" transform="translate(543.88 859.93) rotate(171.38)">E</text><text class="cls-51" transform="translate(511.19 865.13) rotate(177.52)">N</text><text class="cls-51" transform="translate(470.97 866.37) rotate(-177.93)"> </text><text class="cls-51" transform="translate(457.21 866.23) rotate(-173.95)">E</text><text class="cls-51" transform="matrix(-0.98, -0.21, 0.21, -0.98, 424.27, 862.97)">N</text><text class="cls-51" transform="translate(385.16 854.38) rotate(-161.68)">E</text><text class="cls-51" transform="translate(353.65 844.07) rotate(-155.88)">R</text><text class="cls-51" transform="matrix(-0.86, -0.5, 0.5, -0.86, 320.45, 829.31)">G</text><text class="cls-51" transform="matrix(-0.81, -0.59, 0.59, -0.81, 287.52, 809.96)">Y</text><text class="cls-51" transform="matrix(-0.76, -0.65, 0.65, -0.76, 260.58, 789.78)"> </text><text class="cls-51" transform="matrix(-0.71, -0.7, 0.7, -0.71, 249.81, 781.31)">A</text><text class="cls-51" transform="translate(222.74 754.79) rotate(-128.88)">N</text><text class="cls-51" transform="matrix(-0.53, -0.85, 0.85, -0.53, 197.6, 723.75)">D</text><text class="cls-51" transform="translate(176.2 688.6) rotate(-117.44)"> </text><text class="cls-51" transform="translate(169.49 676.63) rotate(-113.22)">C</text><text class="cls-51" transform="translate(155.3 644.1) rotate(-106.95)">O</text><text class="cls-51" transform="translate(142.92 604.26) rotate(-99.51)">M</text><text class="cls-51" transform="translate(135.38 557.53) rotate(-92.51)">P</text><text class="cls-51" transform="translate(133.66 522.03) rotate(-86.27)">U</text><text class="cls-51" transform="translate(136.3 483.66) rotate(-80.52)">T</text><text class="cls-51" transform="translate(141.59 453.4) rotate(-76.59)">I</text><text class="cls-51" transform="translate(144.78 437.76) rotate(-71.89)">N</text><text class="cls-51" transform="translate(157.21 399.76) rotate(-65.38)">G</text><text class="cls-51" transform="matrix(0.48, -0.87, 0.87, 0.48, 173.62, 365.03)"> </text><text class="cls-51" transform="matrix(0.55, -0.84, 0.84, 0.55, 179.83, 352.81)">A</text><text class="cls-51" transform="matrix(0.64, -0.77, 0.77, 0.64, 200.63, 321.1)">K</text><text class="cls-51" transform="translate(222.99 293.72) rotate(-44.46)">G</text><text class="cls-51" transform="translate(250.31 267.03) rotate(-38.46)">E</text><text class="cls-51" transform="translate(276.1 246.38) rotate(-32.63)">C</text><text class="cls-51" transform="translate(307.03 227.05) rotate(-28.39)"> </text><text class="cls-51" transform="translate(319.05 220.26) rotate(-24.76)">2</text><text class="cls-51" transform="translate(345.37 207.96) rotate(-19.54)">0</text><text class="cls-51" transform="translate(376.79 196.87) rotate(-14.42)">2</text><text class="cls-51" transform="translate(405.03 189.57) rotate(-9.58)">2</text><path class="cls-52" d="M443,659.93V602.68s.22-4.24,5.36-5.14l64.14,0-5,5-57.76.61a.78.78,0,0,0-.8.77V659.2h5.22l20.72-19.55s.22.34,0-1.33l-.85-2.7a.29.29,0,0,1,.13-.35l6.57-5.23s2.32-.34,2.67,1l-4.82,4.37v1.25l1.21,3.26,4.78,1.32,5.22-4.8.8,2.06a.64.64,0,0,1-.13.69l-5.45,6a2,2,0,0,1-1.74.13l-2.9-.43-20.72,19.9H447.56S444.3,664.52,443,659.93Z" transform="translate(-13.3 -89.75)"/><path class="cls-52" d="M490.09,628.91l1.68-2.28.73-1.09,2.17-1.2L508.84,610s.69-.35,0-1.26l-1.36-1.26,9.59-9.84,12.81-.11a5.66,5.66,0,0,1,4.57,4.14c.82,3.61.51,58.7.51,58.7s.73,3-3.7,5.35l-34.86.3s-.22-.12-.69.71.25,3.31.25,3.31l8.84-.08a4.78,4.78,0,0,1,2.63,1.9l2.78,3.94-42.14.37,3.15-4.56s1-1.36,2.16-1.29c.83.08,5.54,0,7.85-.07a1.36,1.36,0,0,0,1.34-1.36l0-1.31a1.38,1.38,0,0,0-1.41-1.42l-16.86.14,5.4-5.62,58.83-.51a1.16,1.16,0,0,0,1.12-1.15l-.7-54.9a.9.9,0,0,0-.83-.87l-6.11,0-9.11,9.4-2.06-1.33-14.17,14.2L495,628.26l-3.15,2.51Z" transform="translate(-13.3 -89.75)"/></g></g></svg>