<svg width="564" height="564" viewBox="0 0 564 564" fill="none" xmlns="http://www.w3.org/2000/svg">
<path d="M111.693 57.0422C168.204 14.2833 238.758 -5.59889 309.28 1.36193C379.802 8.32274 445.107 41.6149 492.168 94.5967C539.229 147.579 564.585 216.355 563.179 287.206C561.773 358.056 533.707 425.773 484.581 476.845C435.455 527.918 368.88 558.593 298.137 562.749C227.394 566.906 157.685 544.24 102.915 499.273C48.1457 454.305 12.3423 390.342 2.64774 320.144C-7.04681 249.945 10.0802 178.672 50.612 120.543L89.7136 147.808C56.0425 196.097 41.8146 255.306 49.8681 313.622C57.9217 371.938 87.6648 425.075 133.164 462.431C178.663 499.787 236.573 518.616 295.341 515.163C354.109 511.71 409.415 486.227 450.226 443.8C491.036 401.372 514.352 345.118 515.52 286.26C516.688 227.402 495.623 170.267 456.528 126.253C417.434 82.2394 363.182 54.5826 304.597 48.8C246.012 43.0174 187.401 59.5342 140.455 95.0554L111.693 57.0422Z" fill="#E8FFEB"/>
<path d="M378.018 433.151C339.887 457.409 294.012 466.4 249.545 458.329C205.079 450.259 165.289 425.721 138.114 389.611C110.939 353.5 98.3773 308.472 102.934 263.509C107.491 218.546 128.831 176.954 162.698 147.03C196.565 117.106 240.469 101.049 285.65 102.064C330.832 103.079 373.971 121.091 406.46 152.505C438.949 183.92 458.4 226.428 460.933 271.551C463.467 316.673 448.895 361.091 420.127 395.945L388.269 369.65C410.421 342.812 421.641 308.61 419.691 273.866C417.74 239.122 402.763 206.39 377.746 182.201C352.729 158.012 319.513 144.143 284.723 143.362C249.933 142.58 216.127 154.943 190.049 177.985C163.972 201.027 147.54 233.053 144.031 267.674C140.522 302.296 150.195 336.967 171.12 364.772C192.044 392.577 222.683 411.471 256.922 417.686C291.161 423.9 326.485 416.977 355.846 398.299L378.018 433.151Z" fill="#E8FFEB"/>
<path d="M321.617 320.409V336.326C321.617 347.312 312.661 356.221 301.617 356.221H277.617C266.573 356.221 257.617 347.312 257.617 336.326V288.576" stroke="#1F842E" stroke-width="17"/>
<path d="M351.617 276.638C351.025 276.638 350.421 276.555 349.825 276.368L289.829 256.472C286.665 255.489 284.905 252.142 285.893 248.995C286.881 245.847 290.245 244.081 293.409 245.079L353.405 264.975C356.569 265.958 358.329 269.304 357.341 272.452C356.541 275.003 354.173 276.638 351.617 276.638ZM351.617 256.742C351.025 256.742 350.421 256.659 349.825 256.472L289.829 236.576C286.665 235.593 284.905 232.247 285.893 229.099C286.881 225.951 290.245 224.185 293.409 225.183L353.405 245.079C356.569 246.062 358.329 249.409 357.341 252.556C356.541 255.107 354.173 256.742 351.617 256.742ZM351.617 236.846C351.025 236.846 350.421 236.763 349.825 236.576L322.177 226.735C319.013 225.753 317.253 222.406 318.241 219.259C319.229 216.111 322.589 214.344 325.757 215.343L353.405 225.183C356.569 226.166 358.329 229.513 357.341 232.66C356.541 235.211 354.173 236.846 351.617 236.846Z" fill="#FFB300"/>
<path d="M307.617 296.534C304.301 296.534 301.617 293.86 301.617 290.565V282.607C301.617 276.801 291.997 276.642 291.589 276.638C288.637 276.61 286.129 274.446 285.697 271.541C285.265 268.636 287.009 265.847 289.829 264.975L349.825 245.079C352.977 244.081 356.349 245.847 357.341 248.995C358.329 252.142 356.569 255.489 353.405 256.472L309.361 271.409C311.913 274.083 313.617 277.724 313.617 282.607V290.565C313.617 293.86 310.933 296.534 307.617 296.534ZM291.617 236.846C289.165 236.846 286.865 235.342 285.977 232.919C284.845 229.823 286.453 226.393 289.565 225.267L318.893 214.663C318.097 213.648 317.617 212.371 317.617 210.982C317.617 207.687 320.305 205.013 323.617 205.013C333.617 205.013 340.017 206.645 340.893 212C341.849 217.862 335.573 219.939 333.513 220.623L293.669 236.488C292.993 236.735 292.301 236.846 291.617 236.846Z" fill="#FFD54F"/>
<path d="M335.617 296.534C332.301 296.534 329.617 293.86 329.617 290.565V282.607C329.617 268.441 344.009 264.701 351.617 264.701C354.933 264.701 357.617 267.375 357.617 270.669C357.617 273.956 354.945 276.622 351.641 276.638C351.197 276.642 341.617 276.813 341.617 282.607V290.565C341.617 293.86 338.929 296.534 335.617 296.534ZM291.617 256.742C289.061 256.742 286.697 255.107 285.893 252.552C284.905 249.405 286.665 246.058 289.829 245.075L349.825 225.18C352.977 224.181 356.349 225.948 357.341 229.095C358.329 232.243 356.569 235.589 353.405 236.572L293.409 256.468C292.813 256.659 292.209 256.742 291.617 256.742Z" fill="#FFD54F"/>
<path d="M337.617 304.492H305.621C301.621 304.492 293.621 300.139 293.621 288.576V284.596H349.617V288.576C349.617 300.636 341.617 304.492 337.617 304.492Z" fill="#CFD8DC"/>
<path d="M325.617 328.367H317.621C311.021 328.367 305.621 322.995 305.621 316.43V304.492H337.617V316.43C337.617 322.995 332.217 328.367 325.617 328.367Z" fill="#CFD8DC"/>
<path d="M305.621 310.696V318.654L337.617 312.451V304.492L305.621 310.696ZM310.061 325.614C312.133 327.305 314.745 328.367 317.621 328.367H325.617C330.849 328.367 335.281 324.969 336.909 320.297L310.061 325.614Z" fill="#033060"/>
<path d="M233.161 207.61C233.161 207.61 221.313 246.418 229.949 269.207C238.585 291.996 264.825 291.168 264.825 291.168C267.065 258.75 255.721 231.178 233.161 207.61Z" fill="#1F842E"/>
<path d="M233.162 207.61C233.162 207.61 268.038 229.571 276.674 252.359C285.31 275.148 264.826 291.168 264.826 291.168C258.798 255.36 248.586 237 233.162 207.61Z" fill="#4CAF50"/>
<path d="M210.797 267.54C210.797 267.54 220.865 296.962 235.921 307.105C250.977 317.248 266.005 304.729 266.005 304.729C253.105 283.655 234.365 271.794 210.797 267.54Z" fill="#1F842E"/>
<path d="M210.797 267.54C210.797 267.54 240.881 265.164 255.937 275.307C270.993 285.45 266.005 304.729 266.005 304.729C246.769 285.339 232.729 278.658 210.797 267.54Z" fill="#4CAF50"/>
</svg>
