<svg width="996" height="920" viewBox="0 0 1199 1108" fill="none" xmlns="http://www.w3.org/2000/svg">
<mask id="path-1-inside-1_373_132" fill="white">
<path d="M276.152 542.302C237.566 430.761 242.449 308.773 289.829 200.673C337.208 92.573 423.6 6.30908 531.77 -40.9098C639.94 -88.1288 761.936 -92.8314 873.419 -54.0795C984.903 -15.3275 1077.68 64.03 1133.24 168.162C1188.8 272.293 1203.06 393.544 1173.17 507.725C1143.29 621.905 1071.45 720.622 972.003 784.181C872.552 847.74 752.794 871.469 636.62 850.634C520.447 829.799 416.399 765.932 345.233 671.773L431.295 606.726C486.093 679.228 566.21 728.406 655.664 744.449C745.117 760.491 837.331 742.22 913.909 693.28C990.486 644.339 1045.8 568.328 1068.81 480.409C1091.82 392.489 1080.84 299.127 1038.06 218.945C995.279 138.764 923.842 77.6584 837.999 47.8194C752.157 17.9804 658.22 21.6014 574.929 57.96C491.638 94.3185 425.117 160.742 388.634 243.979C352.152 327.215 348.392 421.147 378.104 507.033L276.152 542.302Z"/>
</mask>
<path d="M276.152 542.302C237.566 430.761 242.449 308.773 289.829 200.673C337.208 92.573 423.6 6.30908 531.77 -40.9098C639.94 -88.1288 761.936 -92.8314 873.419 -54.0795C984.903 -15.3275 1077.68 64.03 1133.24 168.162C1188.8 272.293 1203.06 393.544 1173.17 507.725C1143.29 621.905 1071.45 720.622 972.003 784.181C872.552 847.74 752.794 871.469 636.62 850.634C520.447 829.799 416.399 765.932 345.233 671.773L431.295 606.726C486.093 679.228 566.21 728.406 655.664 744.449C745.117 760.491 837.331 742.22 913.909 693.28C990.486 644.339 1045.8 568.328 1068.81 480.409C1091.82 392.489 1080.84 299.127 1038.06 218.945C995.279 138.764 923.842 77.6584 837.999 47.8194C752.157 17.9804 658.22 21.6014 574.929 57.96C491.638 94.3185 425.117 160.742 388.634 243.979C352.152 327.215 348.392 421.147 378.104 507.033L276.152 542.302Z" stroke="#E8FFEB" stroke-width="4" mask="url(#path-1-inside-1_373_132)"/>
<mask id="path-2-inside-2_373_132" fill="white">
<path d="M321.694 -209.971C476.478 -312.756 665.044 -351.627 847.858 -318.434C1030.67 -285.241 1193.54 -182.562 1302.31 -31.9242C1411.08 118.714 1457.31 305.612 1431.3 489.586C1405.3 673.561 1309.08 840.324 1162.81 954.912C1016.55 1069.5 831.609 1123.02 646.758 1104.24C461.906 1085.46 291.501 995.846 171.271 854.186C51.0408 712.526 -9.67842 529.821 1.84357 344.375C13.3656 158.93 96.234 -14.8546 233.075 -140.542L344.934 -18.7569C239.567 78.0226 175.758 211.836 166.886 354.629C158.014 497.423 204.768 638.106 297.345 747.184C389.922 856.262 521.134 925.264 663.47 939.723C805.806 954.182 948.212 912.976 1060.83 824.743C1173.45 736.51 1247.54 608.102 1267.57 466.442C1287.59 324.782 1252 180.87 1168.24 64.8789C1084.49 -51.1123 959.084 -130.175 818.317 -155.734C677.55 -181.292 532.354 -151.362 413.171 -72.2169L321.694 -209.971Z"/>
</mask>
<path d="M321.694 -209.971C476.478 -312.756 665.044 -351.627 847.858 -318.434C1030.67 -285.241 1193.54 -182.562 1302.31 -31.9242C1411.08 118.714 1457.31 305.612 1431.3 489.586C1405.3 673.561 1309.08 840.324 1162.81 954.912C1016.55 1069.5 831.609 1123.02 646.758 1104.24C461.906 1085.46 291.501 995.846 171.271 854.186C51.0408 712.526 -9.67842 529.821 1.84357 344.375C13.3656 158.93 96.234 -14.8546 233.075 -140.542L344.934 -18.7569C239.567 78.0226 175.758 211.836 166.886 354.629C158.014 497.423 204.768 638.106 297.345 747.184C389.922 856.262 521.134 925.264 663.47 939.723C805.806 954.182 948.212 912.976 1060.83 824.743C1173.45 736.51 1247.54 608.102 1267.57 466.442C1287.59 324.782 1252 180.87 1168.24 64.8789C1084.49 -51.1123 959.084 -130.175 818.317 -155.734C677.55 -181.292 532.354 -151.362 413.171 -72.2169L321.694 -209.971Z" stroke="#E8FFEB" stroke-width="4" mask="url(#path-2-inside-2_373_132)"/>
<path d="M549.494 164.384C606.005 121.625 676.559 101.743 747.081 108.704C817.603 115.664 882.908 148.957 929.969 201.938C977.03 254.92 1002.39 323.697 1000.98 394.547C999.574 465.398 971.508 533.114 922.382 584.187C873.256 635.26 806.681 665.934 735.938 670.091C665.196 674.248 595.486 651.582 540.717 606.614C485.947 561.647 450.144 497.684 440.449 427.485C430.754 357.287 447.881 286.014 488.413 227.885L527.515 255.15C493.844 303.439 479.616 362.648 487.669 420.964C495.723 479.28 525.466 532.416 570.965 569.772C616.464 607.128 674.374 625.958 733.142 622.505C791.91 619.051 847.216 593.569 888.027 551.141C928.838 508.714 952.153 452.46 953.321 393.602C954.489 334.744 933.425 277.609 894.33 233.595C855.235 189.581 800.983 161.924 742.399 156.142C683.814 150.359 625.202 166.876 578.257 202.397L549.494 164.384Z" fill="#E8FFEB"/>
<path d="M815.819 540.493C777.688 564.751 731.813 573.741 687.347 565.671C642.88 557.601 603.09 533.063 575.915 496.952C548.741 460.842 536.179 415.814 540.735 370.851C545.292 325.888 566.632 284.296 600.499 254.372C634.366 224.447 678.27 208.391 723.452 209.406C768.634 210.421 811.772 228.432 844.261 259.847C876.75 291.262 896.202 333.77 898.735 378.892C901.268 424.015 886.697 468.433 857.928 503.287L826.071 476.992C848.223 450.154 859.443 415.952 857.492 381.208C855.541 346.464 840.564 313.732 815.547 289.543C790.531 265.354 757.314 251.485 722.524 250.703C687.734 249.922 653.928 262.285 627.851 285.327C601.773 308.368 585.341 340.394 581.832 375.016C578.324 409.637 587.997 444.309 608.921 472.114C629.846 499.919 660.484 518.813 694.723 525.027C728.963 531.242 764.286 524.319 793.647 505.64L815.819 540.493Z" fill="#E8FFEB"/>
<path d="M759.418 427.751V443.667C759.418 454.654 750.462 463.563 739.418 463.563H715.418C704.374 463.563 695.418 454.654 695.418 443.667V395.917" stroke="#1F842E" stroke-width="17"/>
<path d="M789.419 383.98C788.827 383.98 788.223 383.896 787.627 383.709L727.631 363.813C724.467 362.831 722.707 359.484 723.695 356.337C724.683 353.189 728.047 351.422 731.211 352.421L791.207 372.317C794.371 373.3 796.131 376.646 795.143 379.794C794.343 382.344 791.975 383.98 789.419 383.98ZM789.419 364.084C788.827 364.084 788.223 364 787.627 363.813L727.631 343.918C724.467 342.935 722.707 339.588 723.695 336.441C724.683 333.293 728.047 331.527 731.211 332.525L791.207 352.421C794.371 353.404 796.131 356.75 795.143 359.898C794.343 362.449 791.975 364.084 789.419 364.084ZM789.419 344.188C788.827 344.188 788.223 344.105 787.627 343.918L759.979 334.077C756.815 333.094 755.055 329.748 756.043 326.6C757.031 323.453 760.391 321.686 763.559 322.685L791.207 332.525C794.371 333.508 796.131 336.855 795.143 340.002C794.343 342.553 791.975 344.188 789.419 344.188Z" fill="#FFB300"/>
<path d="M745.419 403.876C742.103 403.876 739.419 401.202 739.419 397.907V389.948C739.419 384.143 729.799 383.984 729.391 383.98C726.439 383.952 723.931 381.787 723.499 378.882C723.067 375.978 724.811 373.188 727.631 372.317L787.627 352.421C790.779 351.422 794.151 353.189 795.143 356.336C796.131 359.484 794.371 362.83 791.207 363.813L747.163 378.751C749.715 381.425 751.419 385.066 751.419 389.948V397.907C751.419 401.202 748.735 403.876 745.419 403.876ZM729.419 344.188C726.967 344.188 724.667 342.684 723.779 340.261C722.647 337.165 724.255 333.735 727.367 332.609L756.695 322.004C755.899 320.99 755.419 319.712 755.419 318.323C755.419 315.029 758.107 312.355 761.419 312.355C771.419 312.355 777.819 313.986 778.695 319.342C779.651 325.203 773.375 327.281 771.315 327.965L731.471 343.83C730.795 344.077 730.103 344.188 729.419 344.188Z" fill="#FFD54F"/>
<path d="M773.419 403.876C770.103 403.876 767.419 401.202 767.419 397.907V389.949C767.419 375.783 781.811 372.042 789.419 372.042C792.735 372.042 795.419 374.716 795.419 378.011C795.419 381.298 792.747 383.964 789.443 383.98C788.999 383.984 779.419 384.155 779.419 389.949V397.907C779.419 401.202 776.731 403.876 773.419 403.876ZM729.419 364.084C726.863 364.084 724.499 362.449 723.695 359.894C722.707 356.746 724.467 353.4 727.631 352.417L787.627 332.521C790.779 331.522 794.151 333.289 795.143 336.437C796.131 339.584 794.371 342.931 791.207 343.914L731.211 363.809C730.615 364 730.011 364.084 729.419 364.084Z" fill="#FFD54F"/>
<path d="M775.418 411.834H743.422C739.422 411.834 731.422 407.481 731.422 395.917V391.938H787.418V395.917C787.418 407.978 779.418 411.834 775.418 411.834Z" fill="#CFD8DC"/>
<path d="M763.418 435.709H755.422C748.822 435.709 743.422 430.337 743.422 423.771V411.834H775.418V423.771C775.418 430.337 770.018 435.709 763.418 435.709Z" fill="#CFD8DC"/>
<path d="M743.422 418.038V425.996L775.418 419.792V411.834L743.422 418.038ZM747.862 432.955C749.934 434.647 752.546 435.709 755.422 435.709H763.418C768.65 435.709 773.082 432.311 774.71 427.639L747.862 432.955Z" fill="#033060"/>
<path d="M670.963 314.951C670.963 314.951 659.115 353.76 667.751 376.549C676.387 399.338 702.627 398.51 702.627 398.51C704.867 366.092 693.523 338.52 670.963 314.951Z" fill="#1F842E"/>
<path d="M670.963 314.951C670.963 314.951 705.839 336.912 714.475 359.701C723.111 382.49 702.627 398.51 702.627 398.51C696.599 362.701 686.387 344.342 670.963 314.951Z" fill="#4CAF50"/>
<path d="M648.599 374.882C648.599 374.882 658.667 404.304 673.723 414.446C688.779 424.589 703.807 412.071 703.807 412.071C690.907 390.997 672.167 379.135 648.599 374.882Z" fill="#1F842E"/>
<path d="M648.599 374.882C648.599 374.882 678.683 372.506 693.739 382.649C708.795 392.792 703.807 412.071 703.807 412.071C684.571 392.68 670.531 385.999 648.599 374.882Z" fill="#4CAF50"/>
</svg>
