<svg width="36" height="38" viewBox="0 0 36 38" fill="none" xmlns="http://www.w3.org/2000/svg">
<rect y="0.412354" width="36" height="37" rx="18" fill="#3F4A56"/>
<path d="M25 11.1628H24V10.1628C24 9.61284 23.55 9.16284 23 9.16284C22.45 9.16284 22 9.61284 22 10.1628V11.1628H14V10.1628C14 9.61284 13.55 9.16284 13 9.16284C12.45 9.16284 12 9.61284 12 10.1628V11.1628H11C9.89 11.1628 9.01 12.0628 9.01 13.1628L9 27.1628C9 28.2628 9.89 29.1628 11 29.1628H25C26.1 29.1628 27 28.2628 27 27.1628V13.1628C27 12.0628 26.1 11.1628 25 11.1628ZM25 26.1628C25 26.7128 24.55 27.1628 24 27.1628H12C11.45 27.1628 11 26.7128 11 26.1628V16.1628H25V26.1628ZM13 18.1628H15V20.1628H13V18.1628ZM17 18.1628H19V20.1628H17V18.1628ZM21 18.1628H23V20.1628H21V18.1628Z" fill="white"/>
</svg>
