<svg width="1440" height="302" viewBox="0 0 1440 302" fill="none" xmlns="http://www.w3.org/2000/svg">
<rect width="1440" height="302" fill="#0098ED"/>
<g opacity="0.2">
<path d="M84.792 176.348C84.8878 177.32 85.5918 178.124 86.543 178.344L92.2484 179.677C92.5491 181.136 92.9345 182.577 93.4024 183.992L89.1518 187.975C88.4389 188.641 88.2294 189.69 88.6327 190.579C89.8736 193.319 91.4018 195.962 93.1796 198.428C93.7499 199.219 94.7524 199.564 95.6947 199.279L101.224 197.597C102.22 198.715 103.283 199.78 104.403 200.776L102.719 206.305C102.436 207.239 102.777 208.25 103.57 208.82C106.034 210.596 108.676 212.126 111.421 213.367C112.314 213.768 113.357 213.561 114.025 212.848L118.008 208.595C119.421 209.063 120.864 209.451 122.323 209.752L123.656 215.457C123.876 216.408 124.68 217.112 125.652 217.208C127.191 217.359 128.717 217.437 130.188 217.437C131.658 217.437 133.184 217.359 134.723 217.208C135.695 217.112 136.499 216.408 136.719 215.457L138.052 209.752C139.511 209.451 140.952 209.065 142.367 208.598L146.35 212.848C147.021 213.561 148.065 213.768 148.954 213.367C151.694 212.126 154.337 210.598 156.803 208.82C157.596 208.25 157.937 207.239 157.654 206.305L155.972 200.776C157.09 199.78 158.155 198.717 159.151 197.597L164.68 199.281C165.609 199.566 166.625 199.221 167.195 198.43C168.971 195.966 170.501 193.324 171.742 190.579C172.146 189.69 171.936 188.641 171.223 187.975L166.973 183.992C167.44 182.577 167.826 181.136 168.127 179.677L173.832 178.344C174.783 178.124 175.487 177.32 175.583 176.348C175.735 174.809 175.812 173.283 175.812 171.812C175.812 170.342 175.735 168.816 175.583 167.277C175.487 166.305 174.783 165.501 173.832 165.281L168.127 163.948C167.826 162.489 167.44 161.048 166.973 159.633L171.223 155.65C171.936 154.984 172.146 153.935 171.742 153.046C170.501 150.305 168.973 147.663 167.195 145.197C166.625 144.404 165.618 144.059 164.68 144.346L159.151 146.028C158.155 144.91 157.092 143.845 155.972 142.849L157.656 137.32C157.939 136.386 157.598 135.375 156.805 134.805C154.341 133.029 151.699 131.499 148.954 130.258C148.065 129.861 147.021 130.066 146.35 130.777L142.367 135.03C140.954 134.562 139.511 134.174 138.052 133.873L136.719 128.168C136.499 127.217 135.695 126.513 134.723 126.417C131.644 126.114 128.731 126.114 125.652 126.417C124.68 126.513 123.876 127.217 123.656 128.168L122.323 133.873C120.864 134.174 119.423 134.559 118.008 135.027L114.025 130.777C113.357 130.066 112.314 129.861 111.421 130.258C108.681 131.499 106.038 133.027 103.572 134.805C102.779 135.375 102.438 136.386 102.721 137.32L104.403 142.849C103.283 143.847 102.218 144.91 101.224 146.026L95.6947 144.344C94.7635 144.061 93.7499 144.404 93.1796 145.195C91.404 147.659 89.8735 150.301 88.6327 153.046C88.2294 153.935 88.4389 154.984 89.1518 155.65L93.4046 159.633C92.9368 161.046 92.5491 162.489 92.2484 163.948L86.543 165.281C85.5918 165.501 84.8878 166.305 84.792 167.277C84.6405 168.816 84.5625 170.342 84.5625 171.812C84.5625 173.283 84.6405 174.809 84.792 176.348V176.348ZM89.203 169.344L94.739 168.052C95.6368 167.843 96.3207 167.112 96.47 166.201C96.8309 164.015 97.4079 161.859 98.1854 159.791C98.5107 158.927 98.2834 157.953 97.6106 157.323L93.4892 153.46C94.2222 151.996 95.0509 150.568 95.9599 149.194L101.322 150.827C102.204 151.094 103.162 150.804 103.748 150.092C105.156 148.378 106.745 146.79 108.469 145.373C109.18 144.787 109.469 143.829 109.202 142.947L107.571 137.585C108.946 136.674 110.374 135.847 111.837 135.112L115.698 139.233C116.329 139.906 117.302 140.133 118.164 139.81C120.236 139.033 122.393 138.456 124.576 138.095C125.487 137.946 126.218 137.262 126.427 136.364L127.719 130.828C129.394 130.725 130.981 130.725 132.656 130.828L133.948 136.364C134.157 137.262 134.888 137.946 135.799 138.095C137.985 138.456 140.141 139.033 142.209 139.81C143.073 140.14 144.047 139.908 144.677 139.236L148.54 135.114C150.004 135.847 151.432 136.676 152.806 137.585L151.173 142.947C150.906 143.829 151.196 144.787 151.906 145.373C153.626 146.786 155.214 148.374 156.627 150.094C157.213 150.804 158.169 151.096 159.053 150.827L164.415 149.196C165.326 150.571 166.153 151.999 166.888 153.462L162.767 157.323C162.094 157.953 161.867 158.925 162.19 159.789C162.967 161.861 163.544 164.017 163.905 166.201C164.054 167.112 164.738 167.843 165.636 168.052L171.172 169.344C171.223 170.182 171.25 171.006 171.25 171.812C171.25 172.619 171.223 173.443 171.172 174.281L165.636 175.573C164.738 175.782 164.054 176.513 163.905 177.424C163.544 179.607 162.967 181.764 162.19 183.836C161.867 184.7 162.094 185.672 162.767 186.302L166.888 190.163C166.153 191.629 165.324 193.057 164.415 194.431L159.053 192.798C158.168 192.526 157.213 192.82 156.627 193.531C155.214 195.251 153.626 196.839 151.906 198.252C151.195 198.838 150.906 199.796 151.173 200.678L152.804 206.04C151.429 206.951 150.001 207.778 148.538 208.513L144.677 204.392C144.047 203.717 143.069 203.489 142.211 203.815C140.139 204.592 137.982 205.169 135.799 205.53C134.888 205.679 134.157 206.363 133.948 207.261L132.656 212.797C130.981 212.899 129.394 212.899 127.719 212.797L126.427 207.261C126.218 206.363 125.487 205.679 124.576 205.53C122.39 205.169 120.234 204.592 118.166 203.815C117.298 203.483 116.328 203.714 115.698 204.389L111.835 208.511C110.371 207.778 108.943 206.949 107.569 206.04L109.202 200.678C109.469 199.796 109.179 198.838 108.469 198.252C106.749 196.839 105.161 195.251 103.748 193.531C103.162 192.82 102.204 192.529 101.322 192.798L95.9598 194.429C95.0486 193.054 94.2221 191.626 93.487 190.163L97.6084 186.302C98.2811 185.671 98.5084 184.7 98.1853 183.836C97.4079 181.764 96.8309 179.607 96.47 177.424C96.3207 176.513 95.6368 175.782 94.739 175.573L89.2029 174.281C89.1517 173.443 89.125 172.619 89.125 171.812C89.125 171.006 89.1517 170.182 89.203 169.344V169.344Z" fill="white"/>
<path d="M219.82 100.655L215.748 98.984C215.474 98.1798 215.153 97.4001 214.788 96.6493L216.481 92.597C216.797 91.8395 216.681 90.9685 216.178 90.3202C214.877 88.6382 213.362 87.1233 211.68 85.8223C211.029 85.3143 210.156 85.2007 209.403 85.5193L205.351 87.2146C204.6 86.8493 203.82 86.5262 203.016 86.2522L201.345 82.1798C201.033 81.4201 200.338 80.8877 199.523 80.783C197.144 80.48 195.544 80.48 193.165 80.783C192.349 80.8877 191.654 81.4202 191.342 82.1798L189.672 86.2522C188.867 86.5263 188.088 86.8471 187.337 87.2124L183.284 85.5193C182.525 85.203 181.654 85.3166 181.005 85.8223C179.321 87.13 177.809 88.6427 176.51 90.3202C176.006 90.9685 175.89 91.8395 176.207 92.597L177.902 96.6493C177.537 97.4001 177.214 98.1798 176.94 98.984L172.867 100.655C172.108 100.967 171.575 101.662 171.471 102.477C171.319 103.667 171.25 104.676 171.25 105.656C171.25 106.636 171.319 107.646 171.471 108.835C171.575 109.651 172.108 110.346 172.867 110.658L176.94 112.328C177.214 113.133 177.535 113.912 177.9 114.663L176.207 118.716C175.89 119.475 176.006 120.344 176.51 120.995C177.817 122.679 179.33 124.191 181.008 125.49C181.656 125.996 182.529 126.107 183.284 125.793L187.337 124.098C188.088 124.463 188.867 124.786 189.672 125.06L191.342 129.133C191.654 129.892 192.349 130.425 193.165 130.529C194.354 130.681 195.364 130.75 196.344 130.75C197.324 130.75 198.333 130.681 199.523 130.529C200.338 130.425 201.033 129.892 201.345 129.133L203.016 125.06C203.82 124.786 204.6 124.465 205.351 124.1L209.403 125.793C210.158 126.107 211.032 125.994 211.68 125.49C213.362 124.189 214.877 122.674 216.178 120.992C216.681 120.344 216.797 119.473 216.481 118.716L214.785 114.663C215.151 113.912 215.474 113.133 215.748 112.328L219.82 110.658C220.58 110.346 221.112 109.651 221.217 108.835C221.368 107.646 221.438 106.636 221.438 105.656C221.438 104.676 221.368 103.667 221.217 102.477C221.112 101.662 220.58 100.967 219.82 100.655V100.655ZM216.824 106.955L213.025 108.514C212.377 108.78 211.889 109.328 211.698 110.003C211.35 111.223 210.873 112.38 210.279 113.44C209.935 114.051 209.893 114.788 210.163 115.436L211.74 119.206C211.163 119.858 210.546 120.475 209.893 121.052L206.124 119.477C205.475 119.206 204.743 119.25 204.13 119.591C203.067 120.188 201.909 120.665 200.69 121.01C200.015 121.202 199.467 121.69 199.202 122.338L197.643 126.136C196.729 126.208 195.958 126.208 195.045 126.136L193.486 122.338C193.22 121.69 192.672 121.202 191.997 121.01C190.777 120.663 189.62 120.186 188.56 119.591C187.947 119.248 187.212 119.206 186.564 119.475L182.794 121.052C182.142 120.475 181.525 119.858 180.948 119.203L182.523 115.436C182.792 114.788 182.75 114.053 182.409 113.442C181.812 112.38 181.335 111.221 180.99 110.003C180.798 109.328 180.31 108.78 179.662 108.514L175.864 106.955C175.828 106.498 175.812 106.071 175.812 105.656C175.812 105.242 175.828 104.814 175.864 104.357L179.662 102.798C180.31 102.533 180.798 101.985 180.99 101.31C181.337 100.089 181.814 98.9328 182.409 97.8724C182.752 97.2619 182.794 96.5246 182.525 95.8763L180.948 92.1069C181.525 91.4541 182.142 90.837 182.797 90.26L186.564 91.8351C187.212 92.1069 187.943 92.0623 188.558 91.7215C189.62 91.1244 190.779 90.6477 191.997 90.3024C192.672 90.1108 193.22 89.6229 193.485 88.9746L195.045 85.1762C195.958 85.105 196.729 85.105 197.643 85.1762L199.202 88.9746C199.467 89.6229 200.015 90.1108 200.69 90.3024C201.911 90.6499 203.067 91.1267 204.128 91.7215C204.742 92.0668 205.475 92.1091 206.124 91.8373L209.893 90.26C210.546 90.837 211.163 91.4541 211.74 92.1069L210.165 95.8763C209.895 96.5246 209.938 97.2597 210.278 97.8701C210.876 98.9328 211.352 100.091 211.698 101.31C211.889 101.985 212.377 102.533 213.025 102.798L216.824 104.357C216.859 104.814 216.875 105.242 216.875 105.656C216.875 106.071 216.859 106.498 216.824 106.955V106.955Z" fill="white"/>
<path d="M196.344 94.25C190.055 94.25 184.938 99.3672 184.938 105.656C184.938 111.945 190.055 117.063 196.344 117.063C202.633 117.063 207.75 111.945 207.75 105.656C207.75 99.3672 202.633 94.25 196.344 94.25ZM196.344 112.5C192.57 112.5 189.5 109.43 189.5 105.656C189.5 101.882 192.57 98.8125 196.344 98.8125C200.118 98.8125 203.188 101.882 203.188 105.656C203.188 109.43 200.118 112.5 196.344 112.5Z" fill="white"/>
<path d="M130.188 199.188C145.283 199.188 157.562 186.908 157.562 171.812C157.562 156.717 145.283 144.438 130.188 144.438C115.092 144.438 102.812 156.717 102.812 171.812C102.812 186.908 115.092 199.188 130.188 199.188ZM130.188 149C142.766 149 153 159.234 153 171.812C153 184.391 142.766 194.625 130.188 194.625C117.609 194.625 107.375 184.391 107.375 171.812C107.375 159.234 117.609 149 130.188 149Z" fill="white"/>
<path d="M162.688 92.6298L168.384 88.8307L170.916 92.6262L165.22 96.4253L162.688 92.6298Z" fill="white"/>
<path d="M143.711 105.288L149.404 101.49L151.936 105.285L146.243 109.083L143.711 105.288Z" fill="white"/>
<path d="M153.198 98.9578L158.892 95.16L161.423 98.9555L155.73 102.753L153.198 98.9578Z" fill="white"/>
<path d="M115.247 124.277L120.94 120.479L123.472 124.275L117.779 128.073L115.247 124.277Z" fill="white"/>
<path d="M124.734 117.947L130.428 114.149L132.96 117.945L127.266 121.742L124.734 117.947Z" fill="white"/>
<path d="M134.221 111.617L139.914 107.819L142.446 111.615L136.753 115.412L134.221 111.617Z" fill="white"/>
<path d="M173.849 186.683L177.374 180.817L181.284 183.167L177.759 189.033L173.849 186.683Z" fill="white"/>
<path d="M179.72 176.902L183.246 171.034L187.157 173.384L183.63 179.252L179.72 176.902Z" fill="white"/>
<path d="M185.595 167.12L189.12 161.254L193.031 163.604L189.505 169.47L185.595 167.12Z" fill="white"/>
<path d="M203.219 137.775L206.744 131.909L210.655 134.259L207.129 140.125L203.219 137.775Z" fill="white"/>
<path d="M191.472 157.338L194.997 151.472L198.907 153.822L195.382 159.688L191.472 157.338Z" fill="white"/>
<path d="M197.344 147.557L200.869 141.691L204.78 144.042L201.254 149.908L197.344 147.557Z" fill="white"/>
</g>
<g opacity="0.2">
<path d="M1355.21 176.348C1355.11 177.32 1354.41 178.124 1353.46 178.344L1347.75 179.677C1347.45 181.136 1347.07 182.577 1346.6 183.992L1350.85 187.975C1351.56 188.641 1351.77 189.69 1351.37 190.579C1350.13 193.319 1348.6 195.962 1346.82 198.428C1346.25 199.219 1345.25 199.564 1344.31 199.279L1338.78 197.597C1337.78 198.715 1336.72 199.78 1335.6 200.776L1337.28 206.305C1337.56 207.239 1337.22 208.25 1336.43 208.82C1333.97 210.596 1331.32 212.126 1328.58 213.367C1327.69 213.768 1326.64 213.561 1325.98 212.848L1321.99 208.595C1320.58 209.063 1319.14 209.451 1317.68 209.752L1316.34 215.457C1316.12 216.408 1315.32 217.112 1314.35 217.208C1312.81 217.359 1311.28 217.437 1309.81 217.437C1308.34 217.437 1306.82 217.359 1305.28 217.208C1304.31 217.112 1303.5 216.408 1303.28 215.457L1301.95 209.752C1300.49 209.451 1299.05 209.065 1297.63 208.598L1293.65 212.848C1292.98 213.561 1291.93 213.768 1291.05 213.367C1288.31 212.126 1285.66 210.598 1283.2 208.82C1282.4 208.25 1282.06 207.239 1282.35 206.305L1284.03 200.776C1282.91 199.78 1281.84 198.717 1280.85 197.597L1275.32 199.281C1274.39 199.566 1273.37 199.221 1272.8 198.43C1271.03 195.966 1269.5 193.324 1268.26 190.579C1267.85 189.69 1268.06 188.641 1268.78 187.975L1273.03 183.992C1272.56 182.577 1272.17 181.136 1271.87 179.677L1266.17 178.344C1265.22 178.124 1264.51 177.32 1264.42 176.348C1264.27 174.809 1264.19 173.283 1264.19 171.812C1264.19 170.342 1264.27 168.816 1264.42 167.277C1264.51 166.305 1265.22 165.501 1266.17 165.281L1271.87 163.948C1272.17 162.489 1272.56 161.048 1273.03 159.633L1268.78 155.65C1268.06 154.984 1267.85 153.935 1268.26 153.046C1269.5 150.305 1271.03 147.663 1272.8 145.197C1273.37 144.404 1274.38 144.059 1275.32 144.346L1280.85 146.028C1281.84 144.91 1282.91 143.845 1284.03 142.849L1282.34 137.32C1282.06 136.386 1282.4 135.375 1283.19 134.805C1285.66 133.029 1288.3 131.499 1291.05 130.258C1291.93 129.861 1292.98 130.066 1293.65 130.777L1297.63 135.03C1299.05 134.562 1300.49 134.174 1301.95 133.873L1303.28 128.168C1303.5 127.217 1304.31 126.513 1305.28 126.417C1308.36 126.114 1311.27 126.114 1314.35 126.417C1315.32 126.513 1316.12 127.217 1316.34 128.168L1317.68 133.873C1319.14 134.174 1320.58 134.559 1321.99 135.027L1325.98 130.777C1326.64 130.066 1327.69 129.861 1328.58 130.258C1331.32 131.499 1333.96 133.027 1336.43 134.805C1337.22 135.375 1337.56 136.386 1337.28 137.32L1335.6 142.849C1336.72 143.847 1337.78 144.91 1338.78 146.026L1344.31 144.344C1345.24 144.061 1346.25 144.404 1346.82 145.195C1348.6 147.659 1350.13 150.301 1351.37 153.046C1351.77 153.935 1351.56 154.984 1350.85 155.65L1346.6 159.633C1347.06 161.046 1347.45 162.489 1347.75 163.948L1353.46 165.281C1354.41 165.501 1355.11 166.305 1355.21 167.277C1355.36 168.816 1355.44 170.342 1355.44 171.812C1355.44 173.283 1355.36 174.809 1355.21 176.348V176.348ZM1350.8 169.344L1345.26 168.052C1344.36 167.843 1343.68 167.112 1343.53 166.201C1343.17 164.015 1342.59 161.859 1341.81 159.791C1341.49 158.927 1341.72 157.953 1342.39 157.323L1346.51 153.46C1345.78 151.996 1344.95 150.568 1344.04 149.194L1338.68 150.827C1337.8 151.094 1336.84 150.804 1336.25 150.092C1334.84 148.378 1333.26 146.79 1331.53 145.373C1330.82 144.787 1330.53 143.829 1330.8 142.947L1332.43 137.585C1331.05 136.674 1329.63 135.847 1328.16 135.112L1324.3 139.233C1323.67 139.906 1322.7 140.133 1321.84 139.81C1319.76 139.033 1317.61 138.456 1315.42 138.095C1314.51 137.946 1313.78 137.262 1313.57 136.364L1312.28 130.828C1310.61 130.725 1309.02 130.725 1307.34 130.828L1306.05 136.364C1305.84 137.262 1305.11 137.946 1304.2 138.095C1302.02 138.456 1299.86 139.033 1297.79 139.81C1296.93 140.14 1295.95 139.908 1295.32 139.236L1291.46 135.114C1290 135.847 1288.57 136.676 1287.19 137.585L1288.83 142.947C1289.09 143.829 1288.8 144.787 1288.09 145.373C1286.37 146.786 1284.79 148.374 1283.37 150.094C1282.79 150.804 1281.83 151.096 1280.95 150.827L1275.58 149.196C1274.67 150.571 1273.85 151.999 1273.11 153.462L1277.23 157.323C1277.91 157.953 1278.13 158.925 1277.81 159.789C1277.03 161.861 1276.46 164.017 1276.09 166.201C1275.95 167.112 1275.26 167.843 1274.36 168.052L1268.83 169.344C1268.78 170.182 1268.75 171.006 1268.75 171.812C1268.75 172.619 1268.78 173.443 1268.83 174.281L1274.36 175.573C1275.26 175.782 1275.95 176.513 1276.1 177.424C1276.46 179.607 1277.03 181.764 1277.81 183.836C1278.13 184.7 1277.91 185.672 1277.23 186.302L1273.11 190.163C1273.85 191.629 1274.68 193.057 1275.58 194.431L1280.95 192.798C1281.83 192.526 1282.79 192.82 1283.37 193.531C1284.79 195.251 1286.37 196.839 1288.09 198.252C1288.8 198.838 1289.09 199.796 1288.83 200.678L1287.2 206.04C1288.57 206.951 1290 207.778 1291.46 208.513L1295.32 204.392C1295.95 203.717 1296.93 203.489 1297.79 203.815C1299.86 204.592 1302.02 205.169 1304.2 205.53C1305.11 205.679 1305.84 206.363 1306.05 207.261L1307.34 212.797C1309.02 212.899 1310.61 212.899 1312.28 212.797L1313.57 207.261C1313.78 206.363 1314.51 205.679 1315.42 205.53C1317.61 205.169 1319.77 204.592 1321.83 203.815C1322.7 203.483 1323.67 203.714 1324.3 204.389L1328.16 208.511C1329.63 207.778 1331.06 206.949 1332.43 206.04L1330.8 200.678C1330.53 199.796 1330.82 198.838 1331.53 198.252C1333.25 196.839 1334.84 195.251 1336.25 193.531C1336.84 192.82 1337.8 192.529 1338.68 192.798L1344.04 194.429C1344.95 193.054 1345.78 191.626 1346.51 190.163L1342.39 186.302C1341.72 185.671 1341.49 184.7 1341.81 183.836C1342.59 181.764 1343.17 179.607 1343.53 177.424C1343.68 176.513 1344.36 175.782 1345.26 175.573L1350.8 174.281C1350.85 173.443 1350.88 172.619 1350.88 171.812C1350.88 171.006 1350.85 170.182 1350.8 169.344V169.344Z" fill="white"/>
<path d="M1220.18 100.655L1224.25 98.984C1224.53 98.1798 1224.85 97.4001 1225.21 96.6493L1223.52 92.597C1223.2 91.8395 1223.32 90.9685 1223.82 90.3202C1225.12 88.6382 1226.64 87.1233 1228.32 85.8223C1228.97 85.3143 1229.84 85.2007 1230.6 85.5193L1234.65 87.2146C1235.4 86.8493 1236.18 86.5262 1236.98 86.2522L1238.65 82.1798C1238.97 81.4201 1239.66 80.8877 1240.48 80.783C1242.86 80.48 1244.46 80.48 1246.84 80.783C1247.65 80.8877 1248.35 81.4202 1248.66 82.1798L1250.33 86.2522C1251.13 86.5263 1251.91 86.8471 1252.66 87.2124L1256.72 85.5193C1257.48 85.203 1258.35 85.3166 1258.99 85.8223C1260.68 87.13 1262.19 88.6427 1263.49 90.3202C1263.99 90.9685 1264.11 91.8395 1263.79 92.597L1262.1 96.6493C1262.46 97.4001 1262.79 98.1798 1263.06 98.984L1267.13 100.655C1267.89 100.967 1268.42 101.662 1268.53 102.477C1268.68 103.667 1268.75 104.676 1268.75 105.656C1268.75 106.636 1268.68 107.646 1268.53 108.835C1268.42 109.651 1267.89 110.346 1267.13 110.658L1263.06 112.328C1262.79 113.133 1262.47 113.912 1262.1 114.663L1263.79 118.716C1264.11 119.475 1263.99 120.344 1263.49 120.995C1262.18 122.679 1260.67 124.191 1258.99 125.49C1258.34 125.996 1257.47 126.107 1256.72 125.793L1252.66 124.098C1251.91 124.463 1251.13 124.786 1250.33 125.06L1248.66 129.133C1248.35 129.892 1247.65 130.425 1246.84 130.529C1245.65 130.681 1244.64 130.75 1243.66 130.75C1242.68 130.75 1241.67 130.681 1240.48 130.529C1239.66 130.425 1238.97 129.892 1238.65 129.133L1236.98 125.06C1236.18 124.786 1235.4 124.465 1234.65 124.1L1230.6 125.793C1229.84 126.107 1228.97 125.994 1228.32 125.49C1226.64 124.189 1225.12 122.674 1223.82 120.992C1223.32 120.344 1223.2 119.473 1223.52 118.716L1225.21 114.663C1224.85 113.912 1224.53 113.133 1224.25 112.328L1220.18 110.658C1219.42 110.346 1218.89 109.651 1218.78 108.835C1218.63 107.646 1218.56 106.636 1218.56 105.656C1218.56 104.676 1218.63 103.667 1218.78 102.477C1218.89 101.662 1219.42 100.967 1220.18 100.655V100.655ZM1223.18 106.955L1226.97 108.514C1227.62 108.78 1228.11 109.328 1228.3 110.003C1228.65 111.223 1229.13 112.38 1229.72 113.44C1230.06 114.051 1230.11 114.788 1229.84 115.436L1228.26 119.206C1228.84 119.858 1229.45 120.475 1230.11 121.052L1233.88 119.477C1234.52 119.206 1235.26 119.25 1235.87 119.591C1236.93 120.188 1238.09 120.665 1239.31 121.01C1239.98 121.202 1240.53 121.69 1240.8 122.338L1242.36 126.136C1243.27 126.208 1244.04 126.208 1244.95 126.136L1246.51 122.338C1246.78 121.69 1247.33 121.202 1248 121.01C1249.22 120.663 1250.38 120.186 1251.44 119.591C1252.05 119.248 1252.79 119.206 1253.44 119.475L1257.21 121.052C1257.86 120.475 1258.48 119.858 1259.05 119.203L1257.48 115.436C1257.21 114.788 1257.25 114.053 1257.59 113.442C1258.19 112.38 1258.66 111.221 1259.01 110.003C1259.2 109.328 1259.69 108.78 1260.34 108.514L1264.14 106.955C1264.17 106.498 1264.19 106.071 1264.19 105.656C1264.19 105.242 1264.17 104.814 1264.14 104.357L1260.34 102.798C1259.69 102.533 1259.2 101.985 1259.01 101.31C1258.66 100.089 1258.19 98.9328 1257.59 97.8724C1257.25 97.2619 1257.21 96.5246 1257.48 95.8763L1259.05 92.1069C1258.48 91.4541 1257.86 90.837 1257.2 90.26L1253.44 91.8351C1252.79 92.1069 1252.06 92.0623 1251.44 91.7215C1250.38 91.1244 1249.22 90.6477 1248 90.3024C1247.33 90.1108 1246.78 89.6229 1246.51 88.9746L1244.96 85.1762C1244.04 85.105 1243.27 85.105 1242.36 85.1762L1240.8 88.9746C1240.53 89.6229 1239.98 90.1108 1239.31 90.3024C1238.09 90.6499 1236.93 91.1267 1235.87 91.7215C1235.26 92.0668 1234.52 92.1091 1233.88 91.8373L1230.11 90.26C1229.45 90.837 1228.84 91.4541 1228.26 92.1069L1229.84 95.8763C1230.1 96.5246 1230.06 97.2597 1229.72 97.8701C1229.12 98.9328 1228.65 100.091 1228.3 101.31C1228.11 101.985 1227.62 102.533 1226.97 102.798L1223.18 104.357C1223.14 104.814 1223.12 105.242 1223.12 105.656C1223.12 106.071 1223.14 106.498 1223.18 106.955V106.955Z" fill="white"/>
<path d="M1243.66 94.25C1249.95 94.25 1255.06 99.3672 1255.06 105.656C1255.06 111.945 1249.95 117.063 1243.66 117.063C1237.37 117.063 1232.25 111.945 1232.25 105.656C1232.25 99.3672 1237.37 94.25 1243.66 94.25ZM1243.66 112.5C1247.43 112.5 1250.5 109.43 1250.5 105.656C1250.5 101.882 1247.43 98.8125 1243.66 98.8125C1239.88 98.8125 1236.81 101.882 1236.81 105.656C1236.81 109.43 1239.88 112.5 1243.66 112.5Z" fill="white"/>
<path d="M1309.81 199.188C1294.72 199.188 1282.44 186.908 1282.44 171.812C1282.44 156.717 1294.72 144.438 1309.81 144.438C1324.91 144.438 1337.19 156.717 1337.19 171.812C1337.19 186.908 1324.91 199.188 1309.81 199.188ZM1309.81 149C1297.23 149 1287 159.234 1287 171.812C1287 184.391 1297.23 194.625 1309.81 194.625C1322.39 194.625 1332.62 184.391 1332.62 171.812C1332.62 159.234 1322.39 149 1309.81 149Z" fill="white"/>
<path d="M1277.31 92.6298L1271.62 88.8307L1269.08 92.6262L1274.78 96.4253L1277.31 92.6298Z" fill="white"/>
<path d="M1296.29 105.288L1290.6 101.49L1288.06 105.285L1293.76 109.083L1296.29 105.288Z" fill="white"/>
<path d="M1286.8 98.9578L1281.11 95.16L1278.58 98.9555L1284.27 102.753L1286.8 98.9578Z" fill="white"/>
<path d="M1324.75 124.277L1319.06 120.479L1316.53 124.275L1322.22 128.073L1324.75 124.277Z" fill="white"/>
<path d="M1315.27 117.947L1309.57 114.149L1307.04 117.945L1312.73 121.742L1315.27 117.947Z" fill="white"/>
<path d="M1305.78 111.617L1300.09 107.819L1297.55 111.615L1303.25 115.412L1305.78 111.617Z" fill="white"/>
<path d="M1266.15 186.683L1262.63 180.817L1258.72 183.167L1262.24 189.033L1266.15 186.683Z" fill="white"/>
<path d="M1260.28 176.902L1256.75 171.034L1252.84 173.384L1256.37 179.252L1260.28 176.902Z" fill="white"/>
<path d="M1254.41 167.12L1250.88 161.254L1246.97 163.604L1250.49 169.47L1254.41 167.12Z" fill="white"/>
<path d="M1236.78 137.775L1233.26 131.909L1229.35 134.259L1232.87 140.125L1236.78 137.775Z" fill="white"/>
<path d="M1248.53 157.338L1245 151.472L1241.09 153.822L1244.62 159.688L1248.53 157.338Z" fill="white"/>
<path d="M1242.66 147.557L1239.13 141.691L1235.22 144.042L1238.75 149.908L1242.66 147.557Z" fill="white"/>
</g>
<path d="M498.134 204.391C498.331 204.391 498.53 204.325 498.694 204.188L517.384 188.691C517.758 188.381 517.809 187.827 517.5 187.454C517.19 187.08 516.636 187.029 516.263 187.338L497.573 202.836C497.199 203.146 497.147 203.699 497.457 204.073C497.631 204.283 497.882 204.391 498.134 204.391Z" fill="white" fill-opacity="0.2"/>
<path d="M491.138 210.192C491.336 210.192 491.534 210.126 491.698 209.99L496.361 206.123C496.734 205.814 496.786 205.26 496.476 204.886C496.167 204.513 495.613 204.461 495.239 204.771L490.577 208.637C490.203 208.947 490.151 209.5 490.461 209.874C490.635 210.084 490.885 210.192 491.138 210.192Z" fill="white" fill-opacity="0.2"/>
<path d="M555 208.504C555 204.742 551.939 201.68 548.176 201.68C547.904 201.68 547.636 201.698 547.372 201.729L534.41 189.01C535.515 186.123 535.077 182.736 532.967 180.191L532.726 179.901C531.041 177.868 528.557 176.702 525.914 176.702C523.86 176.702 521.857 177.425 520.274 178.738L478.58 213.311C477.79 213.088 476.974 212.973 476.148 212.973C472.998 212.973 470.131 214.572 468.479 217.249L468.276 217.577C467.014 219.624 466.624 222.04 467.178 224.381C467.733 226.722 469.166 228.706 471.212 229.969L475.153 232.4H464.62C458.213 232.4 453 237.613 453 244.021V248.317C453 253.944 457.021 258.648 462.339 259.712C462.343 259.719 462.344 259.726 462.348 259.733L467.315 269.138H462.882C461.767 269.138 460.86 270.045 460.86 271.16V275.276C460.86 276.391 461.767 277.298 462.882 277.298H520.478C521.593 277.298 522.5 276.391 522.5 275.276V271.16C522.5 270.045 521.593 269.138 520.478 269.138H497.886L493.027 259.938H517.255C523.663 259.938 528.876 254.725 528.876 248.317V244.021C528.876 237.613 523.663 232.4 517.255 232.4H510.188L495.091 223.087L528.735 195.188L541.439 207.419C541.382 207.773 541.352 208.135 541.352 208.504C541.352 210.299 542.049 211.933 543.186 213.153C543.185 213.169 543.181 213.184 543.181 213.201V218.566C543.181 219.051 543.575 219.444 544.06 219.444H545.778L547.413 252.311C547.436 252.778 547.822 253.146 548.29 253.146C548.759 253.146 549.145 252.778 549.168 252.311L550.803 219.444H552.521C553.006 219.444 553.399 219.051 553.399 218.566V212.889C554.397 211.703 555 210.173 555 208.504ZM521.395 180.091C522.664 179.038 524.269 178.459 525.914 178.459C528.033 178.459 530.023 179.393 531.373 181.022L531.614 181.313C534.108 184.32 533.69 188.797 530.683 191.291L493.028 222.515C493.028 222.515 493.028 222.515 493.027 222.515L485.874 228.447C485.794 228.513 485.714 228.577 485.632 228.639C485.317 228.877 484.984 229.087 484.637 229.269C484.623 229.276 484.609 229.284 484.595 229.291C483.598 229.805 482.486 230.078 481.355 230.078C479.236 230.078 477.247 229.144 475.896 227.516L475.655 227.225C473.161 224.217 473.579 219.741 476.586 217.247L479.337 214.966C479.338 214.966 479.338 214.965 479.339 214.964L521.395 180.091ZM520.743 271.16V275.276C520.743 275.422 520.624 275.541 520.478 275.541H462.882C462.736 275.541 462.617 275.422 462.617 275.276V271.16C462.617 271.014 462.736 270.895 462.882 270.895H520.478C520.624 270.895 520.743 271.014 520.743 271.16ZM493.289 264.195H481.201C480.716 264.195 480.322 264.589 480.322 265.074C480.322 265.559 480.716 265.953 481.201 265.953H494.217L495.899 269.138H469.303L464.441 259.933C464.501 259.934 464.561 259.938 464.621 259.938H491.04L493.289 264.195ZM517.255 234.157C522.694 234.157 527.119 238.582 527.119 244.021V248.317C527.119 253.756 522.694 258.181 517.255 258.181H464.621C459.756 258.181 455.705 254.64 454.904 250.001H465.312C465.797 250.001 466.19 249.607 466.19 249.122C466.19 248.637 465.797 248.243 465.312 248.243H454.757V244.899H462.29C462.775 244.899 463.168 244.506 463.168 244.021C463.168 243.536 462.775 243.142 462.29 243.142H454.798C454.84 242.674 454.915 242.216 455.02 241.769H480.06C480.545 241.769 480.939 241.375 480.939 240.89C480.939 240.405 480.545 240.011 480.06 240.011H455.612C457.152 236.566 460.609 234.157 464.621 234.157H478.002L509.099 253.342C510.522 254.22 512.154 254.684 513.819 254.684C513.819 254.684 513.819 254.684 513.82 254.684C516.773 254.684 519.478 253.279 521.167 250.896C521.279 250.737 521.387 250.574 521.491 250.406L521.693 250.078C524.3 245.853 522.983 240.294 518.757 237.687L513.036 234.157H517.255V234.157ZM509.477 234.026C509.477 234.026 509.477 234.026 509.477 234.026L517.835 239.182C521.236 241.281 522.296 245.755 520.197 249.156L519.995 249.484C518.665 251.64 516.356 252.927 513.819 252.927C512.48 252.927 511.167 252.553 510.021 251.847L472.135 228.473C470.488 227.457 469.335 225.859 468.889 223.976C468.442 222.092 468.756 220.147 469.772 218.499L469.974 218.172C471.304 216.017 473.612 214.731 476.149 214.731C476.377 214.731 476.604 214.741 476.83 214.763L475.465 215.894C471.711 219.007 471.19 224.593 474.302 228.346L474.543 228.637C476.229 230.67 478.712 231.836 481.355 231.836C483.409 231.836 485.412 231.113 486.996 229.8L493.664 224.27L509.477 234.026ZM530.096 194.06L531.804 192.643C532.51 192.058 533.101 191.385 533.576 190.654L545.411 202.268C543.933 202.926 542.729 204.092 542.027 205.546L530.096 194.06ZM548.176 203.437C550.97 203.437 553.243 205.71 553.243 208.504C553.243 211.298 550.97 213.571 548.176 213.571C545.382 213.571 543.109 211.298 543.109 208.504C543.109 205.71 545.382 203.437 548.176 203.437ZM548.29 234.58L547.537 219.444H549.043L548.29 234.58ZM549.966 217.687H546.614H544.938V214.51C545.902 215.032 547.005 215.328 548.176 215.328C549.441 215.328 550.625 214.981 551.642 214.379V217.687H549.966V217.687Z" fill="white" fill-opacity="0.2"/>
<path d="M512.732 249.972C515.675 249.972 518.07 247.577 518.07 244.634C518.07 241.691 515.675 239.297 512.732 239.297C509.789 239.297 507.395 241.691 507.395 244.634C507.394 247.577 509.789 249.972 512.732 249.972ZM512.732 241.054C514.706 241.054 516.312 242.66 516.312 244.634C516.312 246.608 514.706 248.214 512.732 248.214C510.758 248.214 509.152 246.608 509.152 244.634C509.152 242.66 510.758 241.054 512.732 241.054Z" fill="white" fill-opacity="0.2"/>
<path d="M477.096 221.6C477.096 224.543 479.49 226.938 482.433 226.938C485.377 226.938 487.771 224.543 487.771 221.6C487.771 218.657 485.377 216.263 482.433 216.263C479.49 216.262 477.096 218.657 477.096 221.6ZM486.014 221.6C486.014 223.574 484.407 225.181 482.433 225.181C480.459 225.181 478.853 223.574 478.853 221.6C478.853 219.626 480.459 218.02 482.433 218.02C484.407 218.02 486.014 219.626 486.014 221.6Z" fill="white" fill-opacity="0.2"/>
<path d="M525.306 191.267C528.25 191.267 530.644 188.872 530.644 185.929C530.644 182.986 528.25 180.592 525.306 180.592C522.363 180.592 519.969 182.986 519.969 185.929C519.969 188.872 522.363 191.267 525.306 191.267ZM525.306 182.349C527.281 182.349 528.887 183.955 528.887 185.929C528.887 187.903 527.28 189.51 525.306 189.51C523.332 189.51 521.726 187.903 521.726 185.929C521.726 183.955 523.332 182.349 525.306 182.349Z" fill="white" fill-opacity="0.2"/>
<path d="M941.866 204.391C941.669 204.391 941.47 204.325 941.306 204.188L922.616 188.691C922.242 188.381 922.191 187.827 922.5 187.454C922.81 187.08 923.364 187.029 923.737 187.338L942.427 202.836C942.801 203.146 942.853 203.699 942.543 204.073C942.369 204.283 942.118 204.391 941.866 204.391Z" fill="white" fill-opacity="0.2"/>
<path d="M948.862 210.192C948.664 210.192 948.466 210.126 948.302 209.99L943.639 206.123C943.266 205.814 943.214 205.26 943.524 204.886C943.833 204.513 944.387 204.461 944.761 204.771L949.423 208.637C949.797 208.947 949.849 209.5 949.539 209.874C949.365 210.084 949.115 210.192 948.862 210.192Z" fill="white" fill-opacity="0.2"/>
<path d="M885 208.504C885 204.742 888.061 201.68 891.824 201.68C892.096 201.68 892.364 201.698 892.628 201.729L905.59 189.01C904.485 186.123 904.923 182.736 907.033 180.191L907.274 179.901C908.959 177.868 911.443 176.702 914.086 176.702C916.14 176.702 918.143 177.425 919.726 178.738L961.42 213.311C962.21 213.088 963.026 212.973 963.852 212.973C967.002 212.973 969.869 214.572 971.521 217.249L971.724 217.577C972.986 219.624 973.376 222.04 972.822 224.381C972.267 226.722 970.834 228.706 968.788 229.969L964.847 232.4H975.38C981.787 232.4 987 237.613 987 244.021V248.317C987 253.944 982.979 258.648 977.661 259.712C977.657 259.719 977.656 259.726 977.652 259.733L972.685 269.138H977.118C978.233 269.138 979.14 270.045 979.14 271.16V275.276C979.14 276.391 978.233 277.298 977.118 277.298H919.522C918.407 277.298 917.5 276.391 917.5 275.276V271.16C917.5 270.045 918.407 269.138 919.522 269.138H942.114L946.973 259.938H922.745C916.337 259.938 911.124 254.725 911.124 248.317V244.021C911.124 237.613 916.337 232.4 922.745 232.4H929.812L944.909 223.087L911.265 195.188L898.561 207.419C898.618 207.773 898.648 208.135 898.648 208.504C898.648 210.299 897.951 211.933 896.814 213.153C896.815 213.169 896.819 213.184 896.819 213.201V218.566C896.819 219.051 896.425 219.444 895.94 219.444H894.222L892.587 252.311C892.564 252.778 892.178 253.146 891.71 253.146C891.241 253.146 890.855 252.778 890.832 252.311L889.197 219.444H887.479C886.994 219.444 886.601 219.051 886.601 218.566V212.889C885.603 211.703 885 210.173 885 208.504ZM918.605 180.091C917.336 179.038 915.731 178.459 914.086 178.459C911.967 178.459 909.977 179.393 908.627 181.022L908.386 181.313C905.892 184.32 906.31 188.797 909.317 191.291L946.972 222.515C946.972 222.515 946.972 222.515 946.973 222.515L954.126 228.447C954.206 228.513 954.286 228.577 954.368 228.639C954.683 228.877 955.016 229.087 955.363 229.269C955.377 229.276 955.391 229.284 955.405 229.291C956.402 229.805 957.514 230.078 958.645 230.078C960.764 230.078 962.753 229.144 964.104 227.516L964.345 227.225C966.839 224.217 966.421 219.741 963.414 217.247L960.663 214.966C960.662 214.966 960.662 214.965 960.661 214.964L918.605 180.091ZM919.257 271.16V275.276C919.257 275.422 919.376 275.541 919.522 275.541H977.118C977.264 275.541 977.383 275.422 977.383 275.276V271.16C977.383 271.014 977.264 270.895 977.118 270.895H919.522C919.376 270.895 919.257 271.014 919.257 271.16ZM946.711 264.195H958.799C959.284 264.195 959.678 264.589 959.678 265.074C959.678 265.559 959.284 265.953 958.799 265.953H945.783L944.101 269.138H970.697L975.559 259.933C975.499 259.934 975.439 259.938 975.379 259.938H948.96L946.711 264.195ZM922.745 234.157C917.306 234.157 912.881 238.582 912.881 244.021V248.317C912.881 253.756 917.306 258.181 922.745 258.181H975.379C980.244 258.181 984.295 254.64 985.096 250.001H974.688C974.203 250.001 973.81 249.607 973.81 249.122C973.81 248.637 974.203 248.243 974.688 248.243H985.243V244.899H977.71C977.225 244.899 976.832 244.506 976.832 244.021C976.832 243.536 977.225 243.142 977.71 243.142H985.202C985.16 242.674 985.085 242.216 984.98 241.769H959.94C959.455 241.769 959.061 241.375 959.061 240.89C959.061 240.405 959.455 240.011 959.94 240.011H984.388C982.848 236.566 979.391 234.157 975.379 234.157H961.998L930.901 253.342C929.478 254.22 927.846 254.684 926.181 254.684C926.181 254.684 926.181 254.684 926.18 254.684C923.227 254.684 920.522 253.279 918.833 250.896C918.721 250.737 918.613 250.574 918.509 250.406L918.307 250.078C915.7 245.853 917.017 240.294 921.243 237.687L926.964 234.157H922.745V234.157ZM930.523 234.026C930.523 234.026 930.523 234.026 930.523 234.026L922.165 239.182C918.764 241.281 917.704 245.755 919.803 249.156L920.005 249.484C921.335 251.64 923.644 252.927 926.181 252.927C927.52 252.927 928.833 252.553 929.979 251.847L967.865 228.473C969.512 227.457 970.665 225.859 971.111 223.976C971.558 222.092 971.244 220.147 970.228 218.499L970.026 218.172C968.696 216.017 966.388 214.731 963.851 214.731C963.623 214.731 963.396 214.741 963.17 214.763L964.535 215.894C968.289 219.007 968.81 224.593 965.698 228.346L965.457 228.637C963.771 230.67 961.288 231.836 958.645 231.836C956.591 231.836 954.588 231.113 953.004 229.8L946.336 224.27L930.523 234.026ZM909.904 194.06L908.196 192.643C907.49 192.058 906.899 191.385 906.424 190.654L894.589 202.268C896.067 202.926 897.271 204.092 897.973 205.546L909.904 194.06ZM891.824 203.437C889.03 203.437 886.757 205.71 886.757 208.504C886.757 211.298 889.03 213.571 891.824 213.571C894.618 213.571 896.891 211.298 896.891 208.504C896.891 205.71 894.618 203.437 891.824 203.437ZM891.71 234.58L892.463 219.444H890.957L891.71 234.58ZM890.034 217.687H893.386H895.062V214.51C894.098 215.032 892.995 215.328 891.824 215.328C890.559 215.328 889.375 214.981 888.358 214.379V217.687H890.034V217.687Z" fill="white" fill-opacity="0.2"/>
<path d="M927.268 249.972C924.325 249.972 921.93 247.577 921.93 244.634C921.93 241.691 924.325 239.297 927.268 239.297C930.211 239.297 932.605 241.691 932.605 244.634C932.606 247.577 930.211 249.972 927.268 249.972ZM927.268 241.054C925.294 241.054 923.688 242.66 923.688 244.634C923.688 246.608 925.294 248.214 927.268 248.214C929.242 248.214 930.848 246.608 930.848 244.634C930.848 242.66 929.242 241.054 927.268 241.054Z" fill="white" fill-opacity="0.2"/>
<path d="M962.904 221.6C962.904 224.543 960.51 226.938 957.567 226.938C954.623 226.938 952.229 224.543 952.229 221.6C952.229 218.657 954.623 216.263 957.567 216.263C960.51 216.262 962.904 218.657 962.904 221.6ZM953.986 221.6C953.986 223.574 955.593 225.181 957.567 225.181C959.541 225.181 961.147 223.574 961.147 221.6C961.147 219.626 959.541 218.02 957.567 218.02C955.593 218.02 953.986 219.626 953.986 221.6Z" fill="white" fill-opacity="0.2"/>
<path d="M914.694 191.267C911.75 191.267 909.356 188.872 909.356 185.929C909.356 182.986 911.75 180.592 914.694 180.592C917.637 180.592 920.031 182.986 920.031 185.929C920.031 188.872 917.637 191.267 914.694 191.267ZM914.694 182.349C912.719 182.349 911.113 183.955 911.113 185.929C911.113 187.903 912.72 189.51 914.694 189.51C916.668 189.51 918.274 187.903 918.274 185.929C918.274 183.955 916.668 182.349 914.694 182.349Z" fill="white" fill-opacity="0.2"/>
</svg>
